<?xml version="1.0" standalone="no"?>
<!DOCTYPE svg PUBLIC "-//W3C//DTD SVG 20010904//EN"
 "http://www.w3.org/TR/2001/REC-SVG-20010904/DTD/svg10.dtd">
<svg version="1.0" xmlns="http://www.w3.org/2000/svg"
 width="1919.000000pt" height="940.000000pt" viewBox="0 0 1919.000000 940.000000"
 preserveAspectRatio="xMidYMid meet">

<g transform="translate(0.000000,940.000000) scale(0.100000,-0.100000)"
fill="#000000" stroke="none">
<path d="M0 8770 l0 -630 788 -1 c446 -1 757 -5 719 -10 -479 -55 -931 -326
-1204 -721 -107 -154 -205 -371 -252 -553 -23 -91 -51 -292 -51 -366 l0 -49
4043 3 c4401 4 4063 -1 4284 56 464 120 860 436 1077 860 111 217 186 485 186
665 l0 56 4510 0 4510 0 0 30 0 30 290 0 290 0 0 630 0 630 -9595 0 -9595 0 0
-630z m1190 351 c0 -10 -9 -21 -20 -24 -17 -4 -20 -14 -20 -71 0 -59 -2 -66
-20 -66 -18 0 -20 7 -20 66 0 57 -3 67 -20 71 -11 3 -20 14 -20 24 0 17 8 19
60 19 52 0 60 -2 60 -19z m145 -1 c0 -8 -11 -17 -24 -20 -34 -8 -39 -30 -7
-30 19 0 26 -5 26 -20 0 -15 -7 -20 -25 -20 -35 0 -33 -28 2 -32 17 -2 29 -10
31 -20 3 -15 -5 -18 -52 -18 l-56 0 0 83 c0 46 3 87 7 91 4 4 28 6 53 4 31 -2
45 -7 45 -18z m105 -17 l0 -38 27 38 c17 25 34 37 50 37 30 0 29 -8 -7 -52
l-30 -36 36 -44 37 -43 -28 -3 c-21 -3 -34 4 -56 30 l-28 33 -1 -32 c0 -28 -4
-33 -25 -33 -25 0 -25 1 -25 90 0 89 0 90 25 90 22 0 25 -4 25 -37z m16922
-121 l33 -32 0 -170 0 -170 -33 -32 -32 -33 -760 0 -760 0 -32 33 -33 32 0
169 c0 167 0 170 25 196 14 15 34 31 45 36 11 4 356 7 767 6 l748 -2 32 -33z
m-17095 -87 l51 -45 73 25 c40 14 78 25 85 25 13 0 294 -390 294 -407 0 -5
-69 -19 -152 -31 -128 -18 -169 -28 -247 -62 -52 -22 -102 -40 -110 -40 -31 0
-406 126 -404 135 2 17 337 444 348 444 6 1 33 -19 62 -44z m10428 -25 c-5 -8
-11 -8 -17 -2 -6 6 -7 16 -3 22 5 8 11 8 17 2 6 -6 7 -16 3 -22z m-6345 -55
c0 -60 -3 -75 -15 -75 -12 0 -15 15 -15 75 0 60 3 75 15 75 12 0 15 -15 15
-75z m850 60 c-7 -8 -19 -15 -27 -15 -13 0 -13 3 -3 15 7 8 19 15 27 15 13 0
13 -3 3 -15z m-922 -4 c8 -4 13 -19 11 -32 -1 -13 2 -32 6 -43 15 -34 -7 -51
-69 -54 l-56 -3 0 71 0 70 48 0 c26 0 53 -4 60 -9z m512 -57 c16 -37 30 -68
30 -70 0 -11 -32 -2 -36 11 -4 9 -19 15 -40 15 -22 0 -37 -6 -40 -15 -6 -14
-34 -22 -34 -10 0 3 13 35 29 70 18 40 36 65 45 65 10 0 28 -26 46 -66z m1322
24 l37 -43 1 43 c0 30 4 42 15 42 12 0 15 -14 15 -70 0 -84 -9 -88 -62 -27
l-37 42 -1 -42 c0 -31 -4 -43 -15 -43 -12 0 -15 14 -15 70 0 84 9 88 62 28z
m1978 -1 c0 -97 62 -104 68 -8 2 36 7 51 18 51 21 0 20 -103 -2 -124 -20 -21
-78 -21 -95 0 -7 8 -14 40 -17 70 -4 45 -2 54 12 54 12 0 16 -10 16 -43z
m1448 15 c3 -23 -31 -72 -50 -72 -14 0 -9 22 9 42 23 25 3 49 -27 30 -12 -7
-21 -8 -25 -2 -12 20 8 31 48 28 35 -3 43 -7 45 -26z m957 8 c26 -28 23 -75
-6 -106 -24 -26 -24 -26 -2 -22 12 1 23 -1 25 -7 5 -17 -58 -17 -72 -1 -7 9
-18 16 -26 16 -22 0 -54 42 -54 70 0 62 93 96 135 50z m1893 -7 c4 -25 -26
-72 -45 -73 -17 0 -16 12 2 36 8 10 15 25 15 32 0 15 -36 16 -46 1 -4 -8 -9
-8 -18 1 -16 16 11 31 54 28 28 -2 36 -8 38 -25z m-5858 7 c0 -5 7 -10 15 -10
8 0 15 -7 15 -15 0 -8 -7 -15 -15 -15 -26 0 -19 -56 8 -65 21 -7 20 -8 -7 -12
-32 -5 -46 9 -46 48 0 14 -5 30 -11 36 -8 8 -8 15 2 27 16 17 39 21 39 6z
m-2058 -27 c36 -32 10 -93 -40 -93 -30 0 -62 26 -62 49 0 51 64 79 102 44z
m127 4 c15 -19 4 -27 -30 -20 -21 4 -30 1 -35 -11 -10 -27 14 -46 49 -39 29 6
31 5 18 -10 -17 -22 -59 -22 -83 0 -22 20 -23 42 -2 71 17 25 65 30 83 9z
m301 -2 c0 -7 -9 -15 -20 -18 -15 -4 -20 -14 -20 -41 0 -25 -4 -36 -15 -36
-11 0 -15 13 -15 54 l0 54 35 0 c22 0 35 -5 35 -13z m190 -5 c16 -24 12 -90
-4 -90 -10 0 -16 13 -18 38 -2 29 -7 37 -23 37 -16 0 -21 -8 -23 -37 -5 -54
-32 -52 -32 2 0 33 -4 40 -19 40 -21 0 -31 -19 -31 -56 0 -15 -6 -24 -15 -24
-11 0 -15 12 -15 48 0 27 3 51 6 54 3 3 41 5 85 4 59 -1 82 -5 89 -16z m122 3
c10 -9 18 -24 18 -35 0 -14 -8 -18 -41 -18 -25 0 -38 -4 -34 -10 4 -6 16 -9
28 -8 12 2 24 -1 27 -7 7 -15 -59 -18 -76 -4 -20 17 -18 76 4 88 25 15 53 13
74 -6z m1090 0 c20 -18 24 -63 6 -81 -21 -21 -76 -15 -93 12 -37 56 36 115 87
69z m116 -2 c3 -10 -2 -12 -21 -7 -32 8 -46 -10 -15 -20 39 -11 49 -24 37 -46
-8 -15 -19 -18 -46 -16 -20 2 -38 9 -41 15 -2 9 5 11 27 7 19 -4 31 -2 31 4 0
6 -10 12 -21 14 -31 4 -46 32 -29 53 16 19 71 17 78 -4z m232 4 c0 -7 -9 -15
-20 -18 -15 -4 -20 -14 -20 -41 0 -25 -4 -36 -15 -36 -11 0 -15 13 -15 54 l0
54 35 0 c22 0 35 -5 35 -13z m88 3 c7 -7 12 -31 12 -55 l0 -43 -44 0 c-30 0
-46 5 -50 15 -10 26 5 45 35 45 16 0 29 5 29 10 0 6 -13 10 -30 10 -29 0 -38
9 -23 23 11 11 58 8 71 -5z m68 -25 l17 -38 15 38 c8 20 21 37 28 37 18 0 18
-2 -7 -61 -22 -51 -52 -66 -62 -31 -3 9 -12 34 -21 55 -14 32 -14 37 -1 37 8
0 22 -17 31 -37z m162 25 c7 -7 12 -31 12 -55 l0 -43 -44 0 c-30 0 -46 5 -50
15 -10 26 5 45 35 45 16 0 29 5 29 10 0 6 -13 10 -30 10 -29 0 -38 9 -23 23
11 11 58 8 71 -5z m74 -30 c2 -35 7 -43 23 -43 16 0 21 8 23 43 2 28 8 42 18
42 10 0 14 -14 14 -55 l0 -55 -45 0 c-51 0 -65 16 -65 74 0 54 28 48 32 -6z
m137 25 c10 -17 12 -17 25 0 14 18 36 23 36 8 0 -5 -7 -14 -15 -21 -20 -17
-19 -30 7 -57 l21 -23 -21 0 c-11 0 -26 8 -32 18 -10 16 -10 16 -20 0 -11 -19
-40 -25 -40 -9 0 5 7 14 15 21 8 7 15 18 15 25 0 7 -7 18 -15 25 -8 7 -15 16
-15 21 0 16 29 10 39 -8z m1138 5 c19 -15 17 -98 -2 -98 -11 0 -15 11 -15 40
0 36 -2 40 -25 40 -22 0 -25 -4 -25 -40 0 -29 -4 -40 -15 -40 -11 0 -15 13
-15 54 l0 54 42 0 c23 1 48 -4 55 -10z m127 -4 c9 -8 16 -24 16 -35 0 -16 -7
-19 -41 -19 -27 0 -38 -4 -33 -11 4 -6 19 -9 36 -5 21 4 28 2 26 -7 -3 -6 -18
-13 -35 -15 -54 -5 -83 50 -46 90 20 22 56 23 77 2z m124 -25 c2 -19 7 -38 12
-43 16 -16 40 15 40 51 0 56 25 35 28 -24 l3 -50 -48 -1 c-55 -2 -63 7 -63 66
0 53 23 54 28 1z m172 26 c0 -7 -9 -15 -20 -18 -15 -4 -20 -14 -20 -41 0 -25
-4 -36 -15 -36 -11 0 -15 13 -15 54 l0 54 35 0 c22 0 35 -5 35 -13z m120 -50
c0 -69 -10 -85 -54 -85 -38 0 -69 16 -46 24 8 2 26 4 39 3 13 -1 26 3 28 9 2
7 -5 10 -20 7 -31 -6 -57 20 -57 57 0 35 22 50 73 48 l37 -1 0 -62z m122 48
c10 -9 18 -24 18 -35 0 -14 -8 -18 -41 -18 -25 0 -38 -4 -34 -10 4 -6 16 -9
28 -8 12 2 24 -1 27 -7 7 -15 -59 -18 -76 -4 -20 17 -18 76 4 88 25 15 53 13
74 -6z m138 -3 c16 -24 12 -90 -4 -90 -10 0 -16 13 -18 38 -2 30 -7 38 -25 40
-21 3 -23 -1 -23 -37 0 -30 -4 -41 -15 -41 -11 0 -15 13 -15 54 l0 54 45 -2
c28 -1 50 -7 55 -16z m119 11 c22 -14 5 -28 -29 -23 -27 4 -30 2 -30 -22 0
-30 23 -44 44 -27 16 13 32 -2 21 -19 -9 -14 -68 -13 -83 2 -18 18 -15 75 6
87 21 13 52 14 71 2z m112 -1 c11 -6 19 -21 19 -35 0 -23 -4 -25 -42 -25 -35
-1 -40 -3 -25 -11 10 -6 25 -8 34 -5 21 8 39 -4 22 -15 -38 -24 -99 4 -99 44
0 45 48 70 91 47z m1209 -24 c0 -35 21 -63 40 -51 5 3 10 24 10 46 0 28 4 39
15 39 12 0 15 -13 15 -55 l0 -55 -45 0 c-51 0 -65 16 -65 74 0 25 4 36 15 36
10 0 15 -10 15 -34z m140 -21 c0 -42 -3 -55 -15 -55 -12 0 -15 13 -15 55 0 42
3 55 15 55 12 0 15 -13 15 -55z m162 40 c-1 -5 -10 -11 -20 -11 -43 -4 -45 -6
-12 -18 67 -24 42 -75 -31 -64 -35 5 -24 24 11 20 39 -4 39 14 0 22 -24 4 -30
11 -30 30 0 13 6 27 13 30 20 8 72 2 69 -9z m118 -5 c24 -24 25 -47 3 -72 -33
-37 -103 -14 -103 34 0 52 63 75 100 38z m210 0 c16 -24 12 -90 -4 -90 -10 0
-16 13 -18 38 -2 29 -7 37 -23 37 -16 0 -21 -8 -23 -37 -5 -54 -32 -52 -32 2
0 33 -4 40 -19 40 -21 0 -31 -19 -31 -56 0 -15 -6 -24 -15 -24 -11 0 -15 12
-15 48 0 27 3 51 6 54 3 3 41 5 85 4 59 -1 82 -5 89 -16z m208 7 c18 -14 16
-97 -3 -97 -11 0 -15 11 -15 40 0 33 -4 40 -19 40 -21 0 -31 -19 -31 -56 0
-15 -6 -24 -15 -24 -11 0 -15 11 -15 40 0 33 -3 40 -20 40 -17 0 -20 -7 -20
-40 0 -29 -4 -40 -15 -40 -11 0 -15 13 -15 54 l0 53 78 0 c42 0 83 -4 90 -10z
m126 -3 c9 -8 16 -24 16 -35 0 -16 -7 -19 -41 -19 -27 0 -38 -4 -33 -11 4 -6
19 -9 36 -5 21 4 28 2 26 -7 -3 -6 -18 -13 -35 -15 -54 -5 -83 50 -46 90 20
22 56 23 77 2z m114 -3 c3 -10 -2 -12 -21 -7 -14 3 -29 2 -32 -4 -4 -6 8 -13
25 -17 62 -12 45 -66 -19 -61 -20 2 -35 8 -33 13 2 6 16 9 32 7 38 -4 39 14 1
21 -35 7 -46 31 -24 52 18 19 64 16 71 -4z m199 7 c19 -15 17 -98 -2 -98 -11
0 -15 11 -15 41 0 36 -2 40 -22 37 -19 -2 -24 -10 -26 -40 -2 -25 -8 -38 -18
-38 -10 0 -14 14 -14 54 l0 54 42 0 c23 1 48 -4 55 -10z m135 -5 c36 -32 10
-93 -40 -93 -30 0 -62 26 -62 49 0 51 64 79 102 44z m66 -24 c2 -19 7 -38 12
-43 16 -16 40 15 40 51 0 56 25 35 28 -24 l3 -50 -48 -1 c-55 -2 -63 7 -63 66
0 53 23 54 28 1z m184 26 c-1 -5 -10 -11 -20 -11 -43 -4 -45 -6 -12 -18 67
-24 42 -75 -31 -64 -35 5 -24 24 11 20 39 -4 39 14 0 22 -24 4 -30 11 -30 30
0 13 6 27 13 30 20 8 72 2 69 -9z m-502 -40 c0 -10 -10 -15 -30 -15 -20 0 -30
5 -30 15 0 10 10 15 30 15 20 0 30 -5 30 -15z m-2210 -40 c0 -8 -6 -15 -14
-15 -17 0 -28 14 -19 24 12 12 33 6 33 -9z m2850 0 c0 -8 -7 -15 -15 -15 -8 0
-15 7 -15 15 0 8 7 15 15 15 8 0 15 -7 15 -15z m-3820 -707 c-1 -63 -30 -244
-56 -337 -153 -563 -592 -1002 -1155 -1155 -217 -59 55 -56 -4287 -56 l-3984
0 7 68 c38 405 197 745 479 1028 193 192 396 319 640 399 99 32 274 70 361 78
22 2 1830 4 4018 5 l3977 2 0 -32z"/>
<path d="M16950 8785 c0 -30 5 -55 10 -55 6 0 10 17 10 38 l1 37 33 -37 c18
-21 36 -38 40 -38 3 0 6 25 6 55 0 30 -4 55 -10 55 -5 0 -10 -17 -10 -37 l-1
-38 -32 38 c-18 20 -35 37 -39 37 -5 0 -8 -25 -8 -55z"/>
<path d="M17728 8818 c-2 -7 -2 -29 2 -48 3 -25 11 -36 25 -38 18 -2 18 -2 3
8 -10 6 -18 22 -18 35 0 17 6 25 18 26 13 0 14 2 2 6 -8 3 -18 10 -21 15 -3 5
-8 4 -11 -4z"/>
<path d="M17982 8813 c-7 -7 -8 -13 -3 -13 5 0 11 -15 13 -32 2 -24 9 -34 23
-36 18 -2 18 -2 3 8 -19 11 -25 56 -9 62 5 2 4 8 -3 14 -8 8 -15 7 -24 -3z"/>
<path d="M17087 8803 c-4 -3 -7 -19 -7 -34 0 -22 6 -30 26 -35 35 -9 59 15 50
50 -5 20 -13 26 -35 26 -15 0 -31 -3 -34 -7z m56 -17 c8 -21 -16 -48 -36 -40
-17 6 -23 35 -10 47 11 12 41 7 46 -7z"/>
<path d="M17180 8788 c0 -36 17 -53 50 -53 29 -1 30 1 29 40 -2 28 -3 32 -6
13 -9 -55 -53 -62 -53 -7 0 16 -4 29 -10 29 -5 0 -10 -10 -10 -22z"/>
<path d="M17290 8791 c0 -13 8 -21 23 -23 26 -4 21 -23 -6 -22 -11 0 -14 -3
-8 -9 15 -15 46 -3 46 18 0 13 -8 21 -22 23 -32 5 -29 20 5 25 25 4 25 4 -5 6
-26 1 -33 -3 -33 -18z"/>
<path d="M17427 8803 c-4 -3 -7 -19 -7 -34 0 -22 6 -30 26 -35 15 -4 30 -2 37
6 9 10 8 11 -8 6 -27 -8 -48 7 -43 30 2 13 12 19 30 19 15 -1 24 3 22 7 -6 10
-48 11 -57 1z"/>
<path d="M17517 8803 c-4 -3 -7 -19 -7 -34 0 -22 6 -30 26 -35 35 -9 59 15 50
50 -5 20 -13 26 -35 26 -15 0 -31 -3 -34 -7z m56 -17 c8 -21 -16 -48 -36 -40
-17 6 -23 35 -10 47 11 12 41 7 46 -7z"/>
<path d="M17621 8768 l2 -43 6 35 c4 26 11 35 26 35 15 0 22 -9 26 -35 l6 -35
2 43 c1 42 1 42 -34 42 -35 0 -35 0 -34 -42z"/>
<path d="M17805 8804 c45 -11 50 -17 20 -23 -21 -4 -30 -12 -30 -26 0 -16 7
-20 33 -21 32 -1 33 0 30 35 -3 34 -5 36 -38 38 -19 1 -26 -1 -15 -3z m45 -43
c0 -6 -5 -13 -10 -16 -15 -9 -43 3 -35 15 8 13 45 13 45 1z"/>
<path d="M17897 8803 c-4 -3 -7 -19 -7 -34 0 -22 6 -30 26 -35 15 -4 30 -2 37
6 9 10 8 11 -8 6 -27 -8 -48 7 -43 30 2 13 12 19 30 19 15 -1 24 3 22 7 -6 10
-48 11 -57 1z"/>
<path d="M18051 8796 c-29 -34 32 -89 62 -56 10 10 8 12 -5 7 -21 -7 -48 1
-48 14 0 5 14 9 31 9 24 0 30 4 27 18 -4 22 -51 28 -67 8z m54 -6 c4 -6 -5
-10 -19 -10 -14 0 -26 5 -26 10 0 6 9 10 19 10 11 0 23 -4 26 -10z"/>
<path d="M18151 8768 l1 -43 8 34 c4 18 14 37 22 42 9 6 7 9 -9 9 -20 0 -23
-5 -22 -42z"/>
<path d="M1092 8658 c-18 -46 -32 -86 -32 -90 0 -15 41 -8 46 7 4 9 19 15 40
15 22 0 37 -6 40 -15 6 -15 54 -22 54 -7 0 4 -15 43 -33 87 -27 68 -36 80 -57
83 -24 3 -29 -4 -58 -80z m68 -8 c0 -11 -7 -20 -15 -20 -17 0 -18 2 -9 24 9
23 24 20 24 -4z"/>
<path d="M1282 8653 l3 -88 50 0 c39 0 50 4 53 18 3 13 -3 17 -27 17 l-31 0 0
70 c0 68 -1 70 -25 70 l-26 0 3 -87z"/>
<path d="M1432 8653 c3 -83 4 -88 26 -91 19 -3 22 1 22 27 0 26 4 31 25 31 29
0 65 32 65 58 0 10 -7 28 -16 40 -12 18 -25 22 -70 22 l-55 0 3 -87z m83 27
c0 -8 -8 -16 -17 -18 -13 -2 -18 3 -18 18 0 15 5 20 18 18 9 -2 17 -10 17 -18z"/>
<path d="M5200 8840 c0 -17 5 -21 28 -18 16 2 27 9 27 18 0 9 -11 16 -27 18
-23 3 -28 -1 -28 -18z"/>
<path d="M5200 8780 c0 -18 5 -21 33 -18 20 2 32 8 32 18 0 10 -12 16 -32 18
-28 3 -33 0 -33 -18z"/>
<path d="M5732 8820 c-7 -19 -6 -26 5 -28 22 -5 27 5 16 30 l-11 23 -10 -25z"/>
<path d="M11407 8842 c-22 -25 -21 -45 3 -67 17 -15 24 -16 45 -7 44 20 27 92
-23 92 -5 0 -16 -8 -25 -18z"/>
<path d="M5403 8804 c-3 -8 2 -23 11 -32 15 -15 17 -15 32 0 21 21 11 48 -16
48 -11 0 -23 -7 -27 -16z"/>
<path d="M6163 8823 c-22 -8 -14 -23 12 -23 14 0 25 4 25 9 0 11 -21 19 -37
14z"/>
<path d="M7236 8803 c-8 -21 17 -48 38 -40 9 4 16 18 16 32 0 20 -5 25 -24 25
-13 0 -27 -8 -30 -17z"/>
<path d="M7680 8770 c0 -5 9 -10 20 -10 11 0 20 5 20 10 0 6 -9 10 -20 10 -11
0 -20 -4 -20 -10z"/>
<path d="M7910 8770 c0 -5 9 -10 20 -10 11 0 20 5 20 10 0 6 -9 10 -20 10 -11
0 -20 -4 -20 -10z"/>
<path d="M9393 8823 c-22 -8 -14 -23 12 -23 14 0 25 4 25 9 0 11 -21 19 -37
14z"/>
<path d="M9782 8798 c3 -25 36 -37 48 -17 13 20 0 39 -27 39 -20 0 -24 -4 -21
-22z"/>
<path d="M9933 8823 c-22 -8 -14 -23 12 -23 14 0 25 4 25 9 0 11 -21 19 -37
14z"/>
<path d="M10300 8815 c-11 -13 -9 -15 15 -15 16 0 25 5 23 12 -7 19 -24 20
-38 3z"/>
<path d="M11914 8805 c-8 -21 2 -45 19 -45 20 0 40 27 33 45 -7 19 -45 20 -52
0z"/>
<path d="M12473 8823 c-22 -8 -14 -23 12 -23 14 0 25 4 25 9 0 11 -21 19 -37
14z"/>
<path d="M12903 8804 c-3 -8 2 -23 11 -32 15 -15 17 -15 32 0 21 21 11 48 -16
48 -11 0 -23 -7 -27 -16z"/>
<path d="M4172 7710 c-51 -12 -73 -38 -70 -79 2 -30 9 -39 38 -53 19 -9 49
-20 65 -25 46 -13 39 -38 -10 -38 -22 0 -49 4 -61 8 -16 6 -23 2 -32 -17 -9
-21 -7 -25 14 -35 37 -16 126 -14 152 5 36 25 46 51 31 85 -10 25 -22 33 -70
46 -47 13 -59 20 -59 36 0 18 5 19 55 14 48 -5 55 -3 61 15 7 22 -9 38 -38 38
-9 0 -22 2 -30 4 -7 2 -28 0 -46 -4z"/>
<path d="M2680 7585 l0 -125 30 0 30 0 0 65 c0 36 3 65 8 64 4 0 30 -29 57
-64 39 -51 56 -64 78 -65 l27 0 0 125 0 125 -30 0 c-29 0 -29 0 -32 -67 l-3
-68 -55 67 c-43 54 -61 68 -82 68 l-28 0 0 -125z"/>
<path d="M3024 7700 c-40 -16 -64 -59 -64 -112 0 -89 55 -135 151 -126 40 4
58 12 82 37 28 28 32 38 32 87 0 51 -3 58 -37 90 -33 30 -44 34 -90 33 -29 0
-63 -4 -74 -9z m116 -60 c30 -30 27 -83 -6 -109 -15 -12 -35 -21 -46 -21 -27
0 -68 45 -68 75 0 33 42 75 75 75 14 0 34 -9 45 -20z"/>
<path d="M3240 7685 c0 -22 4 -25 40 -25 l40 0 0 -100 0 -100 35 0 35 0 0 100
0 100 35 0 c31 0 35 3 35 25 l0 25 -110 0 -110 0 0 -25z"/>
<path d="M3500 7586 l0 -126 30 0 c28 0 30 3 30 35 0 30 3 35 23 35 14 0 30
-12 45 -35 18 -29 28 -35 57 -35 38 0 38 6 2 55 -14 18 -13 22 9 48 31 36 31
78 0 114 -23 26 -31 28 -110 32 l-86 3 0 -126z m131 64 c41 -23 16 -70 -38
-70 -31 0 -33 2 -33 33 0 19 3 37 7 40 10 10 42 8 64 -3z"/>
<path d="M3760 7585 l0 -125 100 0 100 0 0 25 c0 24 -2 25 -65 25 -63 0 -65 1
-65 25 0 24 3 25 55 25 52 0 55 1 55 25 0 24 -3 25 -55 25 -52 0 -55 1 -55 25
0 24 3 25 59 25 57 0 71 8 71 41 0 5 -45 9 -100 9 l-100 0 0 -125z"/>
<path d="M4368 7670 c-39 -38 -40 -42 -36 -91 7 -71 46 -110 117 -117 96 -9
151 37 151 125 0 82 -47 123 -141 123 -47 0 -55 -4 -91 -40z m147 -35 c27 -26
30 -41 15 -79 -27 -73 -130 -49 -130 30 0 68 68 97 115 49z"/>
<path d="M4650 7585 l0 -125 90 0 c89 0 90 0 90 25 0 22 -4 24 -57 27 l-58 3
-3 98 -3 97 -29 0 -30 0 0 -125z"/>
<path d="M4862 7614 c4 -94 5 -97 36 -125 26 -24 41 -29 82 -29 41 0 56 5 82
29 31 28 32 31 36 125 l4 96 -36 0 -36 0 0 -83 c0 -69 -3 -87 -18 -100 -24
-22 -45 -21 -65 1 -13 14 -17 38 -17 100 l0 82 -36 0 -36 0 4 -96z"/>
<path d="M5120 7686 c0 -21 5 -25 38 -28 l37 -3 3 -97 3 -98 29 0 29 0 3 98 3
97 38 3 c32 3 37 7 37 28 0 24 0 24 -110 24 -110 0 -110 0 -110 -24z"/>
<path d="M5370 7585 l0 -125 35 0 35 0 0 125 0 125 -35 0 -35 0 0 -125z"/>
<path d="M5518 7670 c-39 -38 -40 -42 -36 -91 7 -71 46 -110 117 -117 96 -9
151 37 151 125 0 82 -47 123 -141 123 -47 0 -55 -4 -91 -40z m147 -35 c27 -26
30 -41 15 -79 -27 -73 -130 -49 -130 30 0 68 68 97 115 49z"/>
<path d="M5800 7585 l0 -125 30 0 30 0 0 65 c0 36 3 65 8 64 4 0 30 -29 57
-64 39 -51 56 -64 78 -65 l27 0 0 125 0 125 -30 0 c-29 0 -29 0 -32 -67 l-3
-68 -55 67 c-43 54 -61 68 -82 68 l-28 0 0 -125z"/>
<path d="M3670 7301 c-123 -25 -199 -142 -170 -262 37 -153 235 -216 369 -118
55 40 81 93 81 169 0 108 -64 186 -171 209 -55 12 -58 12 -109 2z m110 -106
c35 -18 60 -62 60 -105 0 -102 -117 -158 -192 -91 -31 27 -33 34 -33 91 0 57
2 64 33 91 37 33 85 38 132 14z"/>
<path d="M4157 7296 c-66 -18 -104 -52 -137 -121 -43 -88 -13 -196 73 -262 70
-54 217 -50 280 7 l32 29 -29 30 c-35 37 -40 37 -73 11 -17 -13 -41 -20 -70
-20 -38 0 -50 5 -79 34 -30 30 -34 40 -34 86 0 46 4 56 34 86 29 29 41 34 79
34 29 0 53 -7 70 -20 33 -26 38 -26 73 11 l29 30 -31 29 c-19 17 -53 32 -83
39 -63 13 -73 13 -134 -3z"/>
<path d="M2690 7090 l0 -210 131 0 c156 0 210 12 244 52 37 44 34 91 -10 135
l-35 35 25 30 c32 38 32 78 -1 117 -34 41 -77 51 -226 51 l-128 0 0 -210z
m234 120 c18 -7 26 -17 26 -34 0 -33 -26 -46 -89 -46 l-51 0 0 38 c0 21 3 42
7 45 10 10 78 8 107 -3z m36 -174 c6 -8 10 -25 8 -37 -4 -27 -48 -42 -111 -37
-42 3 -42 3 -45 46 l-3 42 69 0 c48 0 73 -4 82 -14z"/>
<path d="M3150 7167 c0 -74 3 -168 6 -210 l7 -77 153 0 154 0 0 45 0 45 -100
0 -100 0 0 165 0 165 -60 0 -60 0 0 -133z"/>
<path d="M4706 7142 c-38 -86 -80 -181 -92 -209 l-24 -53 59 0 58 0 13 40 13
40 97 0 97 0 13 -40 13 -40 59 0 c33 0 57 3 55 8 -2 4 -44 98 -93 209 l-89
203 -55 0 -55 0 -69 -158z m156 -27 l26 -65 -58 0 -58 0 26 65 c14 36 28 65
32 65 4 0 18 -29 32 -65z"/>
<path d="M5110 7091 l0 -211 55 0 55 0 0 55 0 55 40 0 c37 0 42 -4 76 -55 l37
-55 60 0 59 0 -17 28 c-10 15 -28 41 -41 59 -29 39 -30 49 -4 63 50 27 67 137
30 197 -33 55 -69 66 -217 71 l-133 4 0 -211z m238 103 c15 -10 22 -25 22 -49
0 -47 -32 -67 -97 -63 l-48 3 -3 49 c-2 27 -1 55 2 62 7 20 95 18 124 -2z"/>
<path d="M5560 7090 l0 -210 50 0 49 0 3 108 3 107 54 -87 c72 -118 81 -117
152 3 41 69 54 85 56 67 1 -13 5 -62 8 -110 l7 -88 49 0 49 0 0 210 0 210 -48
0 -48 0 -69 -120 c-39 -66 -73 -120 -77 -120 -4 0 -39 54 -79 120 l-72 120
-43 0 -44 0 0 -210z"/>
<path d="M6130 7090 l0 -210 165 0 165 0 0 45 0 45 -110 0 -110 0 0 40 0 40
90 0 89 0 7 34 c10 55 2 59 -97 53 l-89 -6 0 40 0 39 105 0 105 0 0 45 0 45
-160 0 -160 0 0 -210z"/>
<path d="M6635 7281 c-140 -65 -167 -247 -52 -348 134 -117 341 -23 340 156 0
155 -151 255 -288 192z m173 -48 c15 -11 37 -35 50 -53 31 -46 31 -134 -1
-181 -26 -39 -97 -79 -142 -79 -17 0 -51 10 -75 23 -52 25 -90 88 -90 147 0
59 38 121 90 148 54 28 127 26 168 -5z"/>
<path d="M6630 7090 l0 -110 30 0 c27 0 30 3 30 30 0 23 5 30 19 30 11 0 28
-13 38 -30 14 -24 24 -30 51 -30 l34 0 -22 35 c-20 32 -21 38 -8 53 23 27 28
49 17 80 -13 38 -46 52 -124 52 l-65 0 0 -110z m125 30 c0 -21 -5 -26 -32 -28
-31 -3 -33 -1 -33 28 0 29 2 31 33 28 27 -2 32 -7 32 -28z"/>
<path d="M15480 5570 l-605 -5 -57 -28 c-134 -66 -210 -229 -178 -383 20 -98
65 -169 144 -225 l39 -29 -415 0 c-535 0 -682 -15 -939 -96 -274 -87 -513
-234 -663 -410 -73 -86 -150 -210 -142 -231 3 -7 1 -13 -4 -13 -15 0 -42 -101
-44 -165 0 -35 -4 -61 -8 -58 -5 2 -8 -37 -8 -87 0 -58 4 -89 10 -85 6 3 10 1
10 -6 0 -7 10 -9 25 -7 14 3 25 1 25 -3 0 -5 7 -9 15 -9 9 0 34 -12 56 -27 34
-22 42 -24 50 -12 7 11 9 9 9 -9 0 -17 9 -27 30 -35 17 -6 30 -15 30 -19 0 -4
6 -8 14 -8 7 0 26 -12 42 -27 l29 -27 6 45 6 44 2 -45 c2 -40 6 -48 41 -72 70
-48 71 -53 70 -267 l0 -191 60 0 60 0 -1 159 c0 109 4 167 12 183 15 29 48 53
73 53 19 0 20 10 23 184 1 101 5 186 8 189 3 3 5 -60 5 -141 0 -130 2 -146 18
-150 16 -4 16 -5 0 -6 -14 -1 -18 -10 -18 -35 0 -33 14 -55 28 -42 3 4 9 39
12 79 l7 72 2 -62 1 -63 149 0 c148 0 150 0 153 -22 2 -19 9 -23 38 -23 29 0
36 4 38 23 3 18 10 22 41 22 21 0 58 -7 84 -16 46 -16 47 -16 77 10 57 47 154
58 229 25 85 -37 362 -220 372 -246 5 -13 9 -102 9 -198 l0 -173 173 -4 c186
-5 215 -12 257 -66 20 -25 21 -36 18 -270 l-3 -244 -32 -28 c-44 -40 -90 -50
-220 -50 l-113 0 -1 -42 c0 -24 0 -113 1 -199 0 -144 -1 -158 -21 -183 -35
-44 -76 -60 -159 -60 -44 0 -85 5 -100 13 -90 49 -301 190 -332 222 l-38 38 0
196 c0 113 -4 195 -9 195 -5 0 -11 -86 -13 -199 -3 -224 -4 -226 -83 -262 -36
-17 -69 -19 -305 -19 -235 0 -270 3 -305 19 -69 31 -69 32 -75 255 -5 181 -7
201 -22 204 -17 3 -18 -11 -18 -183 l0 -187 -33 -33 c-40 -40 -103 -59 -173
-52 -55 6 -69 12 -231 115 l-113 71 0 -324 0 -325 1804 0 c1199 0 1839 4 1907
11 596 61 1076 349 1235 741 55 133 54 111 54 1429 l0 1219 -661 0 -662 0 44
39 c69 60 102 129 107 224 13 220 -92 371 -283 406 -32 6 -59 10 -59 9 -1 -2
-273 -5 -606 -8z m-468 -200 c43 -12 68 -42 68 -82 0 -33 -19 -78 -34 -78 -6
0 4 -12 22 -26 40 -32 44 -79 8 -120 -22 -26 -29 -28 -120 -32 l-96 -4 0 176
0 176 58 0 c31 0 74 -5 94 -10z m288 -120 l0 -130 55 0 55 0 0 -40 0 -40 -100
0 -100 0 0 170 0 170 45 0 45 0 0 -130z m443 116 c103 -43 139 -179 70 -264
-76 -94 -197 -96 -273 -4 -53 65 -52 156 3 219 53 60 129 79 200 49z m421 8
c11 -4 16 -19 16 -51 0 -39 -2 -44 -17 -38 -10 5 -32 10 -50 13 -46 6 -93 -41
-93 -93 0 -67 76 -114 132 -82 l28 16 0 -48 c0 -46 -2 -49 -30 -55 -89 -17
-180 31 -200 105 -23 85 18 196 83 224 33 15 104 19 131 9z m-3496 -1436 l-2
-133 -3 112 c-3 101 -5 112 -21 107 -16 -5 -16 -5 1 6 9 6 17 18 17 25 0 8 2
15 5 15 3 0 4 -60 3 -132z m113 69 c-10 -9 -11 -8 -5 6 3 10 9 15 12 12 3 -3
0 -11 -7 -18z m-58 -102 c-3 -9 -8 -14 -10 -11 -3 3 -2 9 2 15 9 16 15 13 8
-4z m74 -77 c-2 -18 -4 -6 -4 27 0 33 2 48 4 33 2 -15 2 -42 0 -60z m-180 -5
c-2 -16 -4 -3 -4 27 0 30 2 43 4 28 2 -16 2 -40 0 -55z m240 30 c-3 -10 -5 -4
-5 12 0 17 2 24 5 18 2 -7 2 -21 0 -30z m-145 2 c3 -14 1 -28 -3 -31 -5 -3 -9
9 -9 25 0 38 6 40 12 6z m245 -7 c-3 -7 -5 -2 -5 12 0 14 2 19 5 13 2 -7 2
-19 0 -25z m400 10 c-3 -8 -6 -5 -6 6 -1 11 2 17 5 13 3 -3 4 -12 1 -19z
m-101 -116 c-11 -10 -12 3 -7 63 l6 60 3 -59 c2 -32 1 -61 -2 -64z m214 84
c-7 -14 -20 -28 -29 -31 -10 -4 -8 2 7 18 12 13 22 29 22 37 0 7 3 10 7 7 3
-4 0 -18 -7 -31z m-673 -68 c-3 -8 -6 -5 -6 6 -1 11 2 17 5 13 3 -3 4 -12 1
-19z m110 -10 c-3 -8 -6 -5 -6 6 -1 11 2 17 5 13 3 -3 4 -12 1 -19z m50 0 c-3
-8 -6 -5 -6 6 -1 11 2 17 5 13 3 -3 4 -12 1 -19z m408 12 c-3 -5 -14 -10 -23
-10 -15 0 -15 2 -2 10 20 13 33 13 25 0z m2771 -1371 c24 -6 58 -24 74 -39
l30 -28 0 -236 c0 -143 -4 -244 -11 -258 -5 -13 -26 -35 -46 -48 -36 -25 -38
-25 -307 -28 -149 -2 -285 0 -303 3 -18 3 -48 21 -68 39 l-35 33 0 237 c0 288
1 289 110 329 30 11 511 7 556 -4z"/>
<path d="M14957 5313 c-4 -3 -7 -24 -7 -46 0 -38 1 -39 27 -32 38 9 53 35 35
61 -9 15 -46 26 -55 17z"/>
<path d="M14950 5115 c0 -39 3 -45 21 -45 33 0 59 19 59 43 0 31 -18 47 -52
47 -27 0 -28 -2 -28 -45z"/>
<path d="M15633 5295 c-39 -16 -53 -42 -53 -93 0 -57 35 -92 92 -92 53 0 83
19 98 64 15 45 -7 99 -49 120 -36 19 -47 19 -88 1z"/>
<path d="M4205 5190 c-3 -5 -2 -10 4 -10 5 0 13 5 16 10 3 6 2 10 -4 10 -5 0
-13 -4 -16 -10z"/>
<path d="M5447 5174 c-8 -8 1 -24 14 -24 5 0 9 7 9 15 0 15 -12 20 -23 9z"/>
<path d="M7870 5165 c0 -9 5 -15 11 -13 6 2 11 8 11 13 0 5 -5 11 -11 13 -6 2
-11 -4 -11 -13z"/>
<path d="M2122 5145 c3 -28 13 -33 22 -9 10 25 7 34 -9 34 -10 0 -14 -9 -13
-25z"/>
<path d="M3370 5163 c-43 -16 -54 -82 -18 -107 64 -45 142 26 96 87 -14 18
-55 29 -78 20z m60 -44 c6 -10 10 -20 10 -23 0 -10 -32 -36 -45 -36 -15 0 -45
27 -45 41 0 5 9 18 20 29 22 22 45 18 60 -11z"/>
<path d="M3530 5163 c-41 -15 -54 -78 -22 -106 19 -18 48 -22 76 -11 28 11 17
26 -13 19 -20 -4 -34 -1 -45 10 -21 21 -20 31 4 55 16 16 25 18 40 10 12 -6
21 -6 25 -1 3 6 -3 15 -14 20 -21 12 -28 12 -51 4z"/>
<path d="M5765 5160 c-3 -5 -2 -10 4 -10 5 0 13 5 16 10 3 6 2 10 -4 10 -5 0
-13 -4 -16 -10z"/>
<path d="M5980 5149 c0 -16 -4 -19 -19 -14 -22 7 -61 -25 -61 -48 0 -24 34
-45 73 -45 l37 0 0 64 c0 50 -3 64 -15 64 -8 0 -15 -9 -15 -21z m-2 -63 c-2
-13 -10 -21 -23 -21 -23 0 -33 34 -14 45 20 13 40 -1 37 -24z"/>
<path d="M6040 5145 c0 -28 15 -34 24 -9 10 25 7 34 -9 34 -9 0 -15 -9 -15
-25z"/>
<path d="M6135 5160 c-3 -5 -2 -10 4 -10 5 0 13 5 16 10 3 6 2 10 -4 10 -5 0
-13 -4 -16 -10z"/>
<path d="M6220 5105 c0 -37 4 -65 10 -65 6 0 10 28 10 65 0 37 -4 65 -10 65
-6 0 -10 -28 -10 -65z"/>
<path d="M6315 5160 c-8 -13 5 -13 25 0 13 8 13 10 -2 10 -9 0 -20 -4 -23 -10z"/>
<path d="M7365 5160 c-3 -5 -2 -10 4 -10 5 0 13 5 16 10 3 6 2 10 -4 10 -5 0
-13 -4 -16 -10z"/>
<path d="M7454 5148 c-14 -35 -6 -108 12 -108 10 0 14 12 14 40 0 25 5 40 13
40 8 0 7 3 -3 10 -13 8 -12 11 5 24 19 15 19 15 -6 16 -18 0 -29 -7 -35 -22z"/>
<path d="M7650 5107 l0 -64 37 -1 c43 -2 63 12 63 44 0 32 -28 57 -56 50 -19
-5 -24 -2 -24 14 0 11 -4 20 -10 20 -6 0 -10 -28 -10 -63z m69 -5 c11 -20 -2
-42 -25 -42 -18 0 -26 30 -13 46 16 19 26 18 38 -4z"/>
<path d="M8235 5160 c-3 -5 -2 -10 4 -10 5 0 13 5 16 10 3 6 2 10 -4 10 -5 0
-13 -4 -16 -10z"/>
<path d="M2020 5100 l0 -60 45 0 c25 0 45 5 45 10 0 6 -16 10 -35 10 l-35 0 0
50 c0 28 -4 50 -10 50 -6 0 -10 -27 -10 -60z"/>
<path d="M3070 5101 l0 -61 43 0 c59 0 67 8 64 65 l-2 50 -52 3 -53 3 0 -60z
m69 40 c18 -11 5 -31 -20 -31 -12 0 -19 7 -19 20 0 21 16 26 39 11z m19 -56
c10 -9 -12 -25 -34 -25 -18 0 -24 5 -24 21 0 18 4 20 27 14 16 -4 30 -8 31
-10z"/>
<path d="M3220 5100 l0 -60 45 0 c25 0 45 5 45 10 0 6 -13 10 -30 10 -29 0
-30 1 -30 50 0 38 -4 50 -15 50 -12 0 -15 -13 -15 -60z"/>
<path d="M3707 5100 c-18 -43 -22 -60 -12 -60 7 0 15 7 19 15 3 9 18 15 36 15
18 0 33 -6 36 -15 4 -8 12 -15 19 -15 10 0 6 17 -12 60 -17 39 -32 60 -43 60
-11 0 -26 -21 -43 -60z m56 10 c4 -15 0 -20 -14 -20 -21 0 -22 1 -13 24 8 22
21 20 27 -4z"/>
<path d="M3840 5101 c0 -48 3 -61 15 -61 8 0 15 9 15 20 0 11 7 20 15 20 8 0
19 -9 25 -20 6 -11 18 -20 27 -20 13 0 13 3 3 15 -11 13 -10 20 1 41 20 38 2
58 -55 62 l-46 3 0 -60z m80 19 c0 -15 -7 -20 -25 -20 -18 0 -25 5 -25 20 0
15 7 20 25 20 18 0 25 -5 25 -20z"/>
<path d="M3990 5100 c0 -33 4 -60 10 -60 6 0 10 17 10 38 l1 37 17 -27 c9 -16
22 -28 28 -28 6 0 17 12 25 28 l14 27 3 -37 c5 -61 22 -44 22 22 0 69 -11 76
-41 25 -12 -19 -22 -35 -24 -35 -2 0 -13 16 -25 35 -12 19 -26 35 -31 35 -5 0
-9 -27 -9 -60z"/>
<path d="M4170 5100 l0 -60 45 0 c25 0 45 5 45 10 0 6 -16 10 -35 10 -24 0
-35 5 -35 15 0 10 10 15 30 15 37 0 40 18 3 22 -42 5 -41 28 1 28 20 0 36 5
36 10 0 6 -20 10 -45 10 l-45 0 0 -60z"/>
<path d="M4300 5140 c-18 -34 -8 -73 23 -90 24 -13 30 -13 55 0 19 11 28 25
30 47 3 31 -18 63 -41 63 -6 0 -1 -7 11 -16 37 -26 20 -94 -24 -94 -53 0 -75
64 -32 94 18 13 19 16 6 16 -10 0 -22 -9 -28 -20z"/>
<path d="M4729 5143 c-2 -39 3 -79 13 -90 12 -15 48 -17 48 -3 0 6 -7 10 -15
10 -19 0 -21 56 -2 63 10 4 10 6 0 6 -7 1 -13 8 -13 16 0 21 -30 19 -31 -2z"/>
<path d="M5359 5143 c-4 -71 10 -103 45 -103 20 1 20 2 4 14 -21 15 -24 62 -5
69 10 4 10 6 0 6 -7 1 -13 8 -13 16 0 21 -30 19 -31 -2z"/>
<path d="M5509 5143 c-4 -71 10 -103 45 -103 20 1 20 2 4 14 -21 15 -24 62 -5
69 10 4 10 6 0 6 -7 1 -13 8 -13 16 0 21 -30 19 -31 -2z"/>
<path d="M6859 5143 c-4 -71 10 -103 45 -103 20 1 20 2 4 14 -21 15 -24 62 -5
69 10 4 10 6 0 6 -7 1 -13 8 -13 16 0 21 -30 19 -31 -2z"/>
<path d="M2186 5124 c-25 -24 -20 -63 9 -76 56 -25 101 35 57 75 -23 21 -46
22 -66 1z m54 -20 c11 -12 10 -18 -3 -32 -16 -15 -18 -15 -34 0 -13 14 -14 20
-3 32 7 9 16 16 20 16 4 0 13 -7 20 -16z"/>
<path d="M2578 5133 c-26 -4 -28 -8 -28 -49 0 -32 4 -44 15 -44 10 0 15 11 15
35 0 24 5 35 15 35 8 0 15 7 15 15 0 8 -1 14 -2 14 -2 -1 -15 -4 -30 -6z"/>
<path d="M2640 5130 c-15 -10 -13 -11 22 -14 29 -2 25 -21 -5 -24 -23 -3 -28
-8 -25 -25 2 -18 10 -22 46 -24 41 -2 42 -1 42 32 0 53 -40 81 -80 55z m50
-60 c0 -5 -9 -10 -20 -10 -11 0 -20 5 -20 10 0 6 9 10 20 10 11 0 20 -4 20
-10z"/>
<path d="M2767 5127 c-13 -9 -18 -23 -15 -42 3 -26 8 -30 36 -33 17 -2 32 -7
32 -13 0 -9 -13 -12 -42 -10 -9 1 -19 -3 -23 -9 -9 -14 68 -13 83 2 16 16 16
108 0 108 -7 0 -22 3 -33 6 -11 3 -28 -1 -38 -9z m50 -18 c16 -16 5 -39 -17
-39 -25 0 -35 18 -20 35 15 18 22 19 37 4z"/>
<path d="M2900 5122 c-44 -36 1 -99 56 -78 21 8 8 25 -15 19 -10 -3 -22 0 -25
6 -5 7 5 11 28 11 40 0 47 17 20 44 -20 21 -37 20 -64 -2z m48 -20 c2 -7 -6
-12 -17 -12 -21 0 -27 11 -14 24 9 9 26 2 31 -12z"/>
<path d="M4320 5105 c0 -35 13 -47 24 -22 5 10 7 10 12 0 10 -21 19 -15 21 14
1 30 -11 43 -39 43 -14 0 -18 -8 -18 -35z m44 4 c-8 -14 -24 -10 -24 6 0 9 6
12 15 9 8 -4 12 -10 9 -15z"/>
<path d="M4518 5129 c-22 -12 -24 -62 -4 -78 17 -14 72 -11 68 4 -2 6 -14 9
-27 7 -12 -2 -26 2 -30 7 -4 7 8 11 34 11 34 0 39 3 34 18 -7 20 -32 42 -47
42 -6 0 -19 -5 -28 -11z m50 -26 c2 -8 -5 -13 -17 -13 -21 0 -35 13 -24 24 10
10 36 3 41 -11z"/>
<path d="M4631 5126 c-17 -21 -7 -46 18 -46 11 0 23 -5 27 -11 5 -8 -3 -10
-25 -7 -20 3 -30 1 -28 -6 5 -15 48 -19 67 -6 20 13 2 42 -31 51 -20 5 -21 7
-7 14 9 4 22 3 29 -1 7 -4 10 -2 7 7 -7 20 -42 23 -57 5z"/>
<path d="M4890 5122 c-44 -35 1 -99 55 -78 25 9 17 25 -12 23 -24 -2 -28 2
-28 23 0 21 4 25 28 22 29 -3 37 12 11 22 -24 9 -30 8 -54 -12z"/>
<path d="M5006 5127 c-22 -16 -18 -65 5 -80 50 -31 105 38 59 75 -26 21 -40
23 -64 5z m49 -38 c0 -15 -7 -25 -18 -27 -22 -4 -33 24 -17 43 18 21 35 13 35
-16z"/>
<path d="M5143 5133 c-20 -4 -23 -11 -23 -49 0 -24 5 -44 10 -44 6 0 10 13 10
28 0 15 5 33 11 39 20 20 39 3 39 -33 0 -19 5 -34 10 -34 6 0 10 20 10 44 0
41 -13 60 -38 55 -4 -1 -17 -4 -29 -6z"/>
<path d="M5262 5131 c-21 -13 -10 -46 16 -49 12 -2 22 -8 22 -14 0 -6 -11 -8
-25 -6 -17 4 -25 1 -25 -8 0 -20 54 -18 71 2 11 14 10 18 -6 30 -10 8 -25 14
-33 14 -7 0 -10 5 -6 11 3 6 15 8 26 6 12 -4 18 -1 15 6 -5 15 -38 20 -55 8z"/>
<path d="M5740 5122 c-44 -36 1 -99 56 -78 21 8 8 25 -15 19 -10 -3 -22 0 -25
6 -5 7 5 11 28 11 40 0 47 17 20 44 -20 21 -37 20 -64 -2z m48 -20 c2 -7 -6
-12 -17 -12 -21 0 -27 11 -14 24 9 9 26 2 31 -12z"/>
<path d="M6106 5124 c-23 -22 -20 -61 5 -74 24 -13 65 -10 61 5 -2 6 -14 9
-27 7 -14 -2 -25 1 -25 7 0 6 16 11 35 11 40 0 44 11 15 40 -24 24 -43 25 -64
4z m52 -22 c2 -7 -6 -12 -17 -12 -21 0 -27 11 -14 24 9 9 26 2 31 -12z"/>
<path d="M6290 5120 c-25 -25 -25 -42 -1 -64 21 -19 62 -18 68 0 2 7 -5 10
-20 7 -14 -3 -28 0 -31 6 -5 7 5 11 28 11 40 0 47 17 20 44 -21 21 -40 20 -64
-4z m51 -15 c0 -5 -9 -11 -21 -13 -20 -3 -27 8 -13 22 10 9 34 3 34 -9z"/>
<path d="M6428 5133 c-26 -4 -28 -8 -28 -49 0 -32 4 -44 15 -44 10 0 15 11 15
35 0 28 4 35 20 35 16 0 20 -7 20 -35 0 -24 5 -35 15 -35 10 0 15 11 15 35 0
28 4 35 20 35 16 0 20 -7 20 -35 0 -19 5 -35 10 -35 6 0 10 17 10 39 0 46 -22
71 -49 54 -11 -7 -23 -8 -32 -2 -8 5 -16 8 -19 7 -3 0 -17 -3 -32 -5z"/>
<path d="M6618 5129 c-22 -12 -24 -62 -4 -78 17 -14 72 -11 68 4 -2 6 -14 9
-27 7 -12 -2 -26 2 -30 7 -4 7 8 11 34 11 34 0 39 3 34 18 -7 20 -32 42 -47
42 -6 0 -19 -5 -28 -11z m50 -26 c2 -8 -5 -13 -17 -13 -21 0 -35 13 -24 24 10
10 36 3 41 -11z"/>
<path d="M6753 5133 c-20 -4 -23 -11 -23 -49 0 -24 5 -44 10 -44 6 0 10 15 10
34 0 36 19 53 39 33 6 -6 11 -24 11 -39 0 -15 5 -28 10 -28 14 0 12 74 -2 88
-12 12 -16 13 -55 5z"/>
<path d="M6951 5126 c-17 -21 -7 -46 18 -46 11 0 23 -5 27 -11 5 -8 -3 -10
-25 -7 -20 3 -30 1 -28 -6 5 -15 48 -19 67 -6 20 13 2 42 -31 51 -20 5 -21 7
-7 14 9 4 22 3 29 -1 7 -4 10 -2 7 7 -7 20 -42 23 -57 5z"/>
<path d="M7133 5133 c-21 -4 -23 -10 -23 -64 0 -46 3 -59 15 -59 8 0 15 7 15
15 0 9 9 15 23 15 31 0 47 18 47 52 0 25 -25 50 -47 47 -4 -1 -18 -4 -30 -6z
m46 -27 c13 -16 5 -46 -13 -46 -23 0 -36 22 -25 42 12 22 22 23 38 4z"/>
<path d="M7268 5133 c-26 -4 -28 -8 -28 -49 0 -32 4 -44 15 -44 10 0 15 11 15
35 0 24 5 35 15 35 8 0 15 7 15 15 0 8 -1 14 -2 14 -2 -1 -15 -4 -30 -6z"/>
<path d="M7340 5122 c-44 -36 1 -99 56 -78 21 8 8 25 -15 19 -10 -3 -22 0 -25
6 -5 7 5 11 28 11 40 0 47 17 20 44 -20 21 -37 20 -64 -2z m48 -20 c2 -7 -6
-12 -17 -12 -21 0 -27 11 -14 24 9 9 26 2 31 -12z"/>
<path d="M7543 5133 c-21 -8 -15 -23 8 -20 12 1 24 -4 26 -10 3 -8 -5 -13 -21
-13 -29 0 -39 -11 -30 -34 4 -11 18 -15 45 -14 38 1 39 2 39 39 0 47 -28 68
-67 52z m42 -63 c-3 -5 -13 -10 -21 -10 -8 0 -14 5 -14 10 0 6 9 10 21 10 11
0 17 -4 14 -10z"/>
<path d="M7803 5133 c-20 -4 -23 -11 -23 -49 0 -32 4 -44 15 -44 10 0 15 11
15 35 0 24 5 35 15 35 8 0 15 7 15 15 0 8 -3 14 -7 14 -5 -1 -18 -4 -30 -6z"/>
<path d="M7935 5116 c-10 -15 -14 -33 -10 -45 7 -22 46 -38 64 -26 7 3 11 -2
11 -14 0 -12 7 -21 15 -21 12 0 15 13 15 60 0 50 -3 60 -17 60 -10 0 -28 3
-40 6 -16 4 -26 -1 -38 -20z m63 -30 c-2 -13 -10 -21 -23 -21 -23 0 -33 34
-14 45 20 13 40 -1 37 -24z"/>
<path d="M8206 5124 c-23 -22 -20 -61 5 -74 24 -13 65 -10 61 5 -2 6 -14 9
-27 7 -14 -2 -25 1 -25 7 0 6 16 11 35 11 40 0 44 11 15 40 -24 24 -43 25 -64
4z m52 -22 c2 -7 -6 -12 -17 -12 -21 0 -27 11 -14 24 9 9 26 2 31 -12z"/>
<path d="M8325 5126 c-23 -16 -14 -46 14 -46 11 0 23 -4 26 -10 4 -6 -7 -10
-26 -10 -24 0 -30 -3 -22 -11 6 -6 23 -9 39 -7 40 4 47 44 10 54 -14 3 -26 11
-26 16 0 6 9 8 20 5 24 -6 36 8 14 17 -22 9 -28 8 -49 -8z"/>
<path d="M2300 5104 c0 -46 16 -63 60 -62 l40 0 0 44 c0 54 -27 63 -32 12 -2
-21 -8 -33 -18 -33 -10 0 -16 12 -18 33 -4 39 -32 45 -32 6z"/>
<path d="M2430 5120 c0 -20 34 -80 46 -80 14 0 48 79 38 89 -4 3 -9 1 -11 -5
-2 -6 -10 -20 -18 -30 -13 -18 -14 -18 -24 9 -10 26 -31 38 -31 17z"/>
<path d="M5450 5085 c0 -25 5 -45 10 -45 6 0 10 20 10 45 0 25 -4 45 -10 45
-5 0 -10 -20 -10 -45z"/>
<path d="M5590 5111 c0 -11 4 -31 10 -45 8 -21 15 -25 50 -24 l40 0 0 44 c0
54 -27 63 -32 12 -2 -21 -8 -33 -18 -33 -10 0 -16 12 -18 33 -4 35 -32 46 -32
13z"/>
<path d="M7870 5085 c0 -25 5 -45 10 -45 6 0 10 20 10 45 0 25 -4 45 -10 45
-5 0 -10 -20 -10 -45z"/>
<path d="M8060 5104 c0 -46 16 -63 60 -62 l40 0 0 44 c0 54 -27 63 -32 12 -2
-21 -8 -33 -18 -33 -10 0 -16 12 -18 33 -4 39 -32 45 -32 6z"/>
<path d="M2230 4885 c0 -9 5 -15 11 -13 6 2 11 8 11 13 0 5 -5 11 -11 13 -6 2
-11 -4 -11 -13z"/>
<path d="M5462 4888 c6 -18 28 -21 28 -4 0 9 -7 16 -16 16 -9 0 -14 -5 -12
-12z"/>
<path d="M7240 4885 c0 -9 5 -15 11 -13 6 2 11 8 11 13 0 5 -5 11 -11 13 -6 2
-11 -4 -11 -13z"/>
<path d="M7737 4894 c-8 -8 1 -24 14 -24 5 0 9 7 9 15 0 15 -12 20 -23 9z"/>
<path d="M7920 4884 c0 -17 22 -14 28 4 2 7 -3 12 -12 12 -9 0 -16 -7 -16 -16z"/>
<path d="M2760 4827 l0 -64 35 -1 c60 -2 88 52 41 83 -13 8 -31 13 -40 9 -12
-4 -16 0 -16 15 0 12 -4 21 -10 21 -6 0 -10 -28 -10 -63z m68 -21 c-2 -13 -10
-21 -23 -21 -23 0 -33 34 -14 45 20 13 40 -1 37 -24z"/>
<path d="M2890 4825 c0 -37 4 -65 10 -65 6 0 10 28 10 65 0 37 -4 65 -10 65
-6 0 -10 -28 -10 -65z"/>
<path d="M3265 4880 c3 -5 11 -10 16 -10 6 0 7 5 4 10 -3 6 -11 10 -16 10 -6
0 -7 -4 -4 -10z"/>
<path d="M3553 4875 c-25 -18 -31 -62 -13 -96 12 -22 59 -26 78 -7 30 30 -6
76 -48 63 -24 -8 -25 -2 -4 20 10 10 24 13 36 9 15 -4 19 -2 16 7 -7 20 -40
22 -65 4z m45 -78 c2 -12 -3 -17 -17 -17 -12 0 -21 6 -21 13 0 31 32 34 38 4z"/>
<path d="M3670 4870 c-24 -24 -26 -57 -4 -88 30 -44 94 -14 94 45 0 26 -32 63
-55 63 -8 0 -24 -9 -35 -20z m55 -50 c0 -28 -4 -35 -20 -35 -13 0 -21 8 -23
23 -5 34 5 54 25 50 13 -2 18 -13 18 -38z"/>
<path d="M3790 4875 c-18 -21 -5 -47 22 -43 26 3 37 36 16 49 -18 12 -24 11
-38 -6z m40 -20 c0 -8 -6 -15 -14 -15 -17 0 -28 14 -19 24 12 12 33 6 33 -9z"/>
<path d="M4290 4826 l0 -64 40 0 c32 -1 44 4 56 23 24 37 -10 84 -51 69 -10
-4 -15 0 -15 15 0 12 -6 21 -15 21 -12 0 -15 -14 -15 -64z m78 -20 c-2 -13
-10 -21 -23 -21 -23 0 -33 34 -14 45 20 13 40 -1 37 -24z"/>
<path d="M4465 4880 c-3 -5 -2 -10 4 -10 5 0 13 5 16 10 3 6 2 10 -4 10 -5 0
-13 -4 -16 -10z"/>
<path d="M5530 4825 c0 -37 4 -65 10 -65 6 0 10 28 10 65 0 37 -4 65 -10 65
-6 0 -10 -28 -10 -65z"/>
<path d="M5710 4827 l0 -64 37 -1 c45 -2 63 12 63 49 0 30 -30 55 -56 45 -9
-3 -14 1 -14 14 0 11 -7 20 -15 20 -12 0 -15 -14 -15 -63z m69 -1 c13 -16 5
-46 -13 -46 -23 0 -36 22 -25 42 12 22 22 23 38 4z"/>
<path d="M5840 4825 c0 -51 3 -65 15 -65 12 0 15 14 15 65 0 51 -3 65 -15 65
-12 0 -15 -14 -15 -65z"/>
<path d="M6860 4869 c0 -16 -4 -19 -21 -14 -13 4 -27 0 -40 -11 -40 -36 -12
-84 46 -82 l35 1 0 64 c0 35 -4 63 -10 63 -5 0 -10 -9 -10 -21z m-10 -44 c15
-18 6 -45 -15 -45 -18 0 -30 24 -21 45 7 19 20 19 36 0z"/>
<path d="M7060 4825 c0 -37 4 -65 10 -65 6 0 10 28 10 65 0 37 -4 65 -10 65
-6 0 -10 -28 -10 -65z"/>
<path d="M7670 4825 c0 -51 3 -65 15 -65 12 0 15 14 15 65 0 51 -3 65 -15 65
-12 0 -15 -14 -15 -65z"/>
<path d="M8515 4880 c-8 -13 5 -13 25 0 13 8 13 10 -2 10 -9 0 -20 -4 -23 -10z"/>
<path d="M2549 4863 c-4 -71 10 -103 45 -103 20 1 20 2 4 14 -21 15 -24 62 -5
69 10 4 10 6 0 6 -7 1 -13 8 -13 16 0 21 -30 19 -31 -2z"/>
<path d="M3410 4870 c0 -5 12 -10 26 -10 23 0 25 -2 14 -15 -11 -13 -10 -18 9
-31 28 -20 16 -38 -21 -30 -21 4 -28 2 -26 -7 6 -17 56 -21 74 -6 18 15 18 48
-1 55 -12 5 -12 9 2 30 l15 24 -46 0 c-25 0 -46 -4 -46 -10z"/>
<path d="M4549 4863 c-4 -71 10 -103 45 -103 20 1 20 2 4 14 -21 15 -24 62 -5
69 10 4 10 6 0 6 -7 1 -13 8 -13 16 0 21 -30 19 -31 -2z"/>
<path d="M6320 4865 c0 -8 -5 -15 -11 -15 -8 0 -8 -4 -1 -12 6 -7 12 -26 14
-43 2 -22 9 -31 26 -33 25 -4 30 13 7 22 -19 7 -20 45 -1 52 12 5 11 9 -5 25
-23 23 -29 24 -29 4z"/>
<path d="M2026 4844 c-25 -24 -20 -63 9 -76 56 -25 101 35 57 75 -23 21 -46
22 -66 1z m54 -20 c11 -12 10 -18 -3 -32 -16 -15 -18 -15 -34 0 -13 14 -14 20
-3 32 7 9 16 16 20 16 4 0 13 -7 20 -16z"/>
<path d="M2168 4853 c-26 -4 -28 -8 -28 -49 0 -32 4 -44 15 -44 10 0 15 11 15
35 0 24 5 35 15 35 8 0 15 7 15 15 0 8 -1 14 -2 14 -2 -1 -15 -4 -30 -6z"/>
<path d="M2300 4840 c-25 -25 -25 -42 -1 -64 21 -19 62 -18 68 0 2 7 -5 10
-20 7 -14 -3 -28 0 -31 6 -5 7 5 11 28 11 40 0 47 17 20 44 -21 21 -40 20 -64
-4z m51 -15 c0 -5 -9 -11 -21 -13 -20 -3 -27 8 -13 22 10 9 34 3 34 -9z"/>
<path d="M2438 4853 c-26 -4 -28 -8 -28 -49 0 -32 4 -44 15 -44 10 0 15 10 15
34 0 20 6 36 14 39 20 8 26 -2 26 -40 0 -23 5 -33 15 -33 24 0 20 76 -4 90
-11 5 -21 9 -23 9 -2 -1 -15 -4 -30 -6z"/>
<path d="M2640 4850 c-15 -10 -13 -11 24 -14 31 -2 30 -24 -1 -28 -20 -2 -28
-9 -28 -23 0 -17 7 -20 43 -22 41 -2 42 -1 42 32 0 53 -40 81 -80 55z m50 -60
c0 -5 -9 -10 -20 -10 -11 0 -20 5 -20 10 0 6 9 10 20 10 11 0 20 -4 20 -10z"/>
<path d="M2960 4840 c-25 -25 -25 -42 -1 -64 21 -19 62 -18 68 0 2 7 -5 10
-20 7 -14 -3 -28 0 -31 6 -5 7 5 11 28 11 40 0 47 17 20 44 -21 21 -40 20 -64
-4z m51 -15 c0 -5 -9 -11 -21 -13 -20 -3 -27 8 -13 22 10 9 34 3 34 -9z"/>
<path d="M3082 4851 c-21 -13 -10 -46 16 -49 12 -2 22 -8 22 -14 0 -6 -11 -8
-25 -6 -17 4 -25 1 -25 -8 0 -20 54 -18 71 2 11 14 10 18 -6 30 -10 8 -25 14
-33 14 -7 0 -10 5 -6 11 3 6 15 8 26 6 12 -4 18 -1 15 6 -5 15 -38 20 -55 8z"/>
<path d="M3253 4853 c-21 -8 -15 -23 8 -20 12 1 24 -4 26 -10 3 -8 -5 -13 -21
-13 -29 0 -39 -11 -30 -34 4 -11 18 -15 45 -14 38 1 39 2 39 39 0 47 -28 68
-67 52z m42 -63 c-3 -5 -13 -10 -21 -10 -8 0 -14 5 -14 10 0 6 9 10 21 10 11
0 17 -4 14 -10z"/>
<path d="M3990 4842 c-44 -36 1 -99 56 -78 21 8 8 25 -15 19 -10 -3 -22 0 -25
6 -5 7 5 11 28 11 40 0 47 17 20 44 -20 21 -37 20 -64 -2z m48 -20 c2 -7 -6
-12 -17 -12 -21 0 -27 11 -14 24 9 9 26 2 31 -12z"/>
<path d="M4123 4853 c-20 -4 -23 -11 -23 -49 0 -32 4 -44 15 -44 10 0 15 11
15 35 0 28 4 35 20 35 16 0 20 -7 20 -35 0 -24 5 -35 15 -35 21 0 20 64 -1 84
-16 16 -21 17 -61 9z"/>
<path d="M4436 4844 c-23 -22 -20 -61 5 -74 24 -13 65 -10 61 5 -2 6 -14 9
-27 7 -14 -2 -25 1 -25 7 0 6 16 11 35 11 40 0 44 11 15 40 -24 24 -43 25 -64
4z m52 -22 c2 -7 -6 -12 -17 -12 -21 0 -27 11 -14 24 9 9 26 2 31 -12z"/>
<path d="M4646 4847 c-22 -16 -18 -65 5 -80 50 -31 105 38 59 75 -26 21 -40
23 -64 5z m49 -38 c0 -15 -7 -25 -18 -27 -22 -4 -33 24 -17 43 18 21 35 13 35
-16z"/>
<path d="M4783 4853 c-20 -4 -23 -11 -23 -49 0 -32 4 -44 15 -44 10 0 15 11
15 35 0 28 4 35 20 35 16 0 20 -7 20 -35 0 -24 5 -35 15 -35 21 0 20 64 -1 84
-16 16 -21 17 -61 9z"/>
<path d="M5020 4840 c-25 -25 -25 -42 -1 -64 21 -19 62 -18 68 0 2 7 -5 10
-20 7 -14 -3 -28 0 -31 6 -5 7 5 11 28 11 40 0 47 17 20 44 -21 21 -40 20 -64
-4z m51 -15 c0 -5 -9 -11 -21 -13 -20 -3 -27 8 -13 22 10 9 34 3 34 -9z"/>
<path d="M5158 4853 c-26 -4 -28 -8 -28 -49 0 -32 4 -44 15 -44 10 0 15 11 15
35 0 28 4 35 20 35 16 0 20 -7 20 -35 0 -24 5 -35 15 -35 10 0 15 11 15 35 0
28 4 35 20 35 16 0 20 -7 20 -35 0 -19 5 -35 10 -35 6 0 10 17 10 39 0 46 -22
71 -49 54 -11 -7 -23 -8 -32 -2 -8 5 -16 8 -19 7 -3 0 -17 -3 -32 -5z"/>
<path d="M5353 4853 c-21 -4 -23 -10 -23 -64 0 -46 3 -59 15 -59 8 0 15 7 15
15 0 9 9 15 23 15 31 0 47 18 47 52 0 25 -25 50 -47 47 -4 -1 -18 -4 -30 -6z
m46 -27 c13 -16 5 -46 -13 -46 -23 0 -36 22 -25 42 12 22 22 23 38 4z"/>
<path d="M5603 4853 c-22 -8 -14 -22 11 -20 33 3 38 -17 6 -21 -58 -8 -44 -52
16 -50 32 1 34 3 34 39 0 47 -28 68 -67 52z m42 -63 c-3 -5 -13 -10 -21 -10
-8 0 -14 5 -14 10 0 6 9 10 21 10 11 0 17 -4 14 -10z"/>
<path d="M5916 4844 c-23 -22 -20 -61 5 -74 24 -13 65 -10 61 5 -2 6 -14 9
-27 7 -14 -2 -25 1 -25 7 0 6 16 11 35 11 40 0 44 11 15 40 -24 24 -43 25 -64
4z m52 -22 c2 -7 -6 -12 -17 -12 -21 0 -27 11 -14 24 9 9 26 2 31 -12z"/>
<path d="M6035 4846 c-23 -16 -14 -46 14 -46 11 0 23 -4 26 -10 4 -6 -7 -10
-26 -10 -24 0 -30 -3 -22 -11 6 -6 23 -9 39 -7 40 4 47 44 10 54 -14 3 -26 11
-26 16 0 6 9 8 20 5 24 -6 36 8 14 17 -22 9 -28 8 -49 -8z"/>
<path d="M6208 4849 c-22 -12 -24 -62 -4 -78 17 -14 72 -11 68 4 -2 6 -14 9
-27 7 -12 -2 -26 2 -30 7 -4 7 8 11 34 11 34 0 39 3 34 18 -7 20 -32 42 -47
42 -6 0 -19 -5 -28 -11z m50 -26 c2 -8 -5 -13 -17 -13 -21 0 -35 13 -24 24 10
10 36 3 41 -11z"/>
<path d="M6488 4853 c-26 -4 -28 -8 -28 -49 0 -32 4 -44 15 -44 10 0 15 11 15
35 0 28 4 35 20 35 16 0 20 -7 20 -35 0 -24 5 -35 15 -35 10 0 15 11 15 35 0
28 4 35 20 35 16 0 20 -7 20 -35 0 -19 5 -35 10 -35 6 0 10 17 10 39 0 46 -22
71 -49 54 -11 -7 -23 -8 -32 -2 -8 5 -16 8 -19 7 -3 0 -17 -3 -32 -5z"/>
<path d="M6670 4840 c-11 -11 -20 -26 -20 -33 0 -20 33 -47 58 -47 19 0 52 33
52 52 0 14 -39 48 -55 48 -8 0 -24 -9 -35 -20z m58 -34 c-2 -13 -10 -21 -23
-21 -23 0 -33 34 -14 45 20 13 40 -1 37 -24z"/>
<path d="M7133 4853 c-21 -8 -15 -23 8 -20 12 1 24 -4 26 -10 3 -8 -5 -13 -21
-13 -29 0 -39 -11 -30 -34 4 -11 18 -15 45 -14 38 1 39 2 39 39 0 47 -28 68
-67 52z m42 -63 c-3 -5 -13 -10 -21 -10 -8 0 -14 5 -14 10 0 6 9 10 21 10 11
0 17 -4 14 -10z"/>
<path d="M7323 4853 c-20 -4 -23 -11 -23 -49 0 -32 4 -44 15 -44 10 0 15 11
15 35 0 24 5 35 15 35 8 0 15 7 15 15 0 8 -3 14 -7 14 -5 -1 -18 -4 -30 -6z"/>
<path d="M7396 4844 c-23 -22 -20 -61 5 -74 24 -13 65 -10 61 5 -2 6 -14 9
-27 7 -14 -2 -25 1 -25 7 0 6 16 11 35 11 40 0 44 11 15 40 -24 24 -43 25 -64
4z m52 -22 c2 -7 -6 -12 -17 -12 -21 0 -27 11 -14 24 9 9 26 2 31 -12z"/>
<path d="M7515 4846 c-23 -16 -14 -46 14 -46 11 0 23 -4 26 -10 4 -6 -7 -10
-26 -10 -24 0 -30 -3 -22 -11 6 -6 23 -9 39 -7 40 4 47 44 10 54 -14 3 -26 11
-26 16 0 6 9 8 20 5 24 -6 36 8 14 17 -22 9 -28 8 -49 -8z"/>
<path d="M7813 4853 c-22 -8 -14 -22 11 -20 33 3 38 -17 6 -21 -58 -8 -44 -52
16 -50 32 1 34 3 34 39 0 47 -28 68 -67 52z m42 -63 c-3 -5 -13 -10 -21 -10
-8 0 -14 5 -14 10 0 6 9 10 21 10 11 0 17 -4 14 -10z"/>
<path d="M7992 4851 c-21 -13 -10 -46 16 -49 12 -2 22 -8 22 -14 0 -6 -11 -8
-25 -6 -17 4 -25 1 -25 -8 0 -20 54 -18 71 2 11 14 10 18 -6 30 -10 8 -25 14
-33 14 -7 0 -10 5 -6 11 3 6 15 8 26 6 12 -4 18 -1 15 6 -5 15 -38 20 -55 8z"/>
<path d="M8100 4842 c-46 -37 9 -106 59 -75 23 15 27 64 5 80 -24 18 -38 16
-64 -5z m50 -17 c15 -18 6 -45 -15 -45 -18 0 -30 24 -21 45 7 19 20 19 36 0z"/>
<path d="M8238 4853 c-26 -4 -28 -8 -28 -49 0 -32 4 -44 15 -44 10 0 15 10 15
34 0 20 6 36 14 39 20 8 26 -2 26 -40 0 -23 5 -33 15 -33 24 0 20 76 -4 90
-11 5 -21 9 -23 9 -2 -1 -15 -4 -30 -6z"/>
<path d="M8373 4853 c-20 -4 -23 -11 -23 -49 0 -24 5 -44 10 -44 6 0 10 13 10
28 0 15 5 33 11 39 20 20 39 3 39 -33 0 -19 5 -34 10 -34 6 0 10 20 10 44 0
41 -13 60 -38 55 -4 -1 -17 -4 -29 -6z"/>
<path d="M8490 4840 c-25 -25 -25 -42 -1 -64 21 -19 62 -18 68 0 2 7 -5 10
-20 7 -14 -3 -28 0 -31 6 -5 7 5 11 28 11 40 0 47 17 20 44 -21 21 -40 20 -64
-4z m51 -15 c0 -5 -9 -11 -21 -13 -20 -3 -27 8 -13 22 10 9 34 3 34 -9z"/>
<path d="M8612 4851 c-21 -13 -10 -46 16 -49 12 -2 22 -8 22 -14 0 -6 -11 -8
-25 -6 -17 4 -25 1 -25 -8 0 -20 54 -18 71 2 11 14 10 18 -6 30 -10 8 -25 14
-33 14 -7 0 -10 5 -6 11 3 6 15 8 26 6 12 -4 18 -1 15 6 -5 15 -38 20 -55 8z"/>
<path d="M2230 4805 c0 -25 5 -45 10 -45 6 0 10 20 10 45 0 25 -4 45 -10 45
-5 0 -10 -20 -10 -45z"/>
<path d="M5460 4805 c0 -33 4 -45 15 -45 11 0 15 12 15 45 0 33 -4 45 -15 45
-11 0 -15 -12 -15 -45z"/>
<path d="M6920 4824 c0 -46 16 -63 60 -62 l40 0 0 44 c0 54 -27 63 -32 12 -2
-21 -8 -33 -18 -33 -10 0 -16 12 -18 33 -4 39 -32 45 -32 6z"/>
<path d="M7240 4805 c0 -25 5 -45 10 -45 6 0 10 20 10 45 0 25 -4 45 -10 45
-5 0 -10 -20 -10 -45z"/>
<path d="M7740 4805 c0 -25 5 -45 10 -45 6 0 10 20 10 45 0 25 -4 45 -10 45
-5 0 -10 -20 -10 -45z"/>
<path d="M7920 4805 c0 -33 4 -45 15 -45 11 0 15 12 15 45 0 33 -4 45 -15 45
-11 0 -15 -12 -15 -45z"/>
<path d="M3857 4783 c-2 -5 -1 -19 3 -33 l7 -25 10 25 c11 26 8 40 -7 40 -5 0
-11 -3 -13 -7z"/>
<path d="M4890 4758 c1 -31 1 -32 15 -14 19 25 19 46 0 46 -10 0 -15 -10 -15
-32z"/>
<path d="M2707 4614 c-8 -8 1 -24 14 -24 5 0 9 7 9 15 0 15 -12 20 -23 9z"/>
<path d="M2255 4600 c-3 -5 -2 -10 4 -10 5 0 13 5 16 10 3 6 2 10 -4 10 -5 0
-13 -4 -16 -10z"/>
<path d="M3609 4583 c-2 -39 3 -79 13 -90 12 -15 48 -17 48 -3 0 6 -7 10 -15
10 -19 0 -21 56 -2 63 10 4 10 6 0 6 -7 1 -13 8 -13 16 0 21 -30 19 -31 -2z"/>
<path d="M2043 4573 c-20 -4 -23 -11 -23 -49 0 -24 5 -44 10 -44 6 0 10 16 10
35 0 28 4 35 20 35 16 0 20 -7 20 -35 0 -24 5 -35 15 -35 10 0 15 11 15 35 0
28 4 35 20 35 16 0 20 -7 20 -35 0 -24 5 -35 15 -35 21 0 20 64 -1 84 -18 18
-40 21 -49 6 -4 -7 -12 -7 -25 0 -10 5 -20 9 -22 9 -2 -1 -13 -4 -25 -6z"/>
<path d="M2228 4569 c-22 -12 -24 -62 -4 -78 17 -14 72 -11 68 4 -2 6 -14 9
-27 7 -12 -2 -26 2 -30 7 -4 7 8 11 34 11 34 0 39 3 34 18 -7 20 -32 42 -47
42 -6 0 -19 -5 -28 -11z m50 -26 c2 -8 -5 -13 -17 -13 -21 0 -35 13 -24 24 10
10 36 3 41 -11z"/>
<path d="M2346 4564 c-23 -22 -20 -61 5 -74 24 -13 69 -5 69 11 0 7 -10 9 -24
5 -31 -8 -54 17 -36 39 8 10 21 13 39 8 23 -6 25 -5 12 10 -17 21 -45 22 -65
1z"/>
<path d="M2460 4570 c-15 -10 -13 -11 22 -14 29 -2 25 -21 -5 -24 -23 -3 -28
-8 -25 -25 2 -18 10 -22 46 -24 41 -2 42 -1 42 32 0 53 -40 81 -80 55z m50
-60 c0 -5 -9 -10 -20 -10 -11 0 -20 5 -20 10 0 6 9 10 20 10 11 0 20 -4 20
-10z"/>
<path d="M2598 4573 c-26 -4 -28 -8 -28 -49 0 -32 4 -44 15 -44 10 0 15 10 15
34 0 20 6 36 14 39 20 8 26 -2 26 -40 0 -23 5 -33 15 -33 24 0 20 76 -4 90
-11 5 -21 9 -23 9 -2 -1 -15 -4 -30 -6z"/>
<path d="M2776 4561 c-24 -27 -14 -69 19 -77 13 -3 29 -3 34 1 7 3 11 -2 11
-14 0 -12 5 -21 10 -21 6 0 10 27 10 60 0 41 -4 60 -12 60 -7 0 -22 3 -33 6
-13 3 -27 -2 -39 -15z m54 -16 c15 -18 6 -45 -15 -45 -18 0 -30 24 -21 45 7
19 20 19 36 0z"/>
<path d="M3046 4564 c-23 -22 -20 -61 5 -74 24 -13 65 -10 61 5 -2 6 -14 9
-27 7 -14 -2 -25 1 -25 7 0 6 16 11 35 11 40 0 44 11 15 40 -24 24 -43 25 -64
4z m52 -22 c2 -7 -6 -12 -17 -12 -21 0 -27 11 -14 24 9 9 26 2 31 -12z"/>
<path d="M3183 4573 c-20 -4 -23 -11 -23 -49 0 -24 5 -44 10 -44 6 0 10 13 10
29 0 35 21 56 38 39 7 -7 12 -25 12 -40 0 -15 5 -28 10 -28 6 0 10 13 10 29 0
29 21 57 33 44 4 -3 7 -21 7 -40 0 -23 5 -33 15 -33 11 0 15 11 15 40 0 46
-26 68 -59 50 -13 -7 -22 -7 -26 0 -6 10 -13 11 -52 3z"/>
<path d="M3366 4564 c-23 -22 -20 -61 5 -74 24 -13 65 -10 61 5 -2 6 -14 9
-27 7 -14 -2 -25 1 -25 7 0 6 16 11 35 11 40 0 44 11 15 40 -24 24 -43 25 -64
4z m52 -22 c2 -7 -6 -12 -17 -12 -21 0 -27 11 -14 24 9 9 26 2 31 -12z"/>
<path d="M3503 4573 c-20 -4 -23 -11 -23 -49 0 -24 5 -44 10 -44 6 0 10 13 10
28 0 15 5 33 11 39 20 20 39 3 39 -33 0 -19 5 -34 10 -34 6 0 10 20 10 44 0
41 -13 60 -38 55 -4 -1 -17 -4 -29 -6z"/>
<path d="M2710 4525 c0 -25 5 -45 10 -45 6 0 10 20 10 45 0 25 -4 45 -10 45
-5 0 -10 -20 -10 -45z"/>
<path d="M2900 4544 c0 -46 16 -63 60 -62 l40 0 0 44 c0 54 -27 63 -32 12 -2
-21 -8 -33 -18 -33 -10 0 -16 12 -18 33 -4 39 -32 45 -32 6z"/>
<path d="M3695 4501 c-7 -12 12 -24 25 -16 11 7 4 25 -10 25 -5 0 -11 -4 -15
-9z"/>
<path d="M12423 4475 c0 -22 2 -30 4 -17 2 12 2 30 0 40 -3 9 -5 -1 -4 -23z"/>
<path d="M12471 4404 c0 -11 3 -14 6 -6 3 7 2 16 -1 19 -3 4 -6 -2 -5 -13z"/>
<path d="M12567 4363 c-3 -5 -1 -17 4 -28 7 -17 8 -17 8 8 1 27 -4 34 -12 20z"/>
<path d="M12422 4065 c0 -16 2 -22 5 -12 2 9 2 23 0 30 -3 6 -5 -1 -5 -18z"/>
<path d="M2036 3989 c-31 -25 -34 -61 -6 -89 22 -22 56 -26 80 -9 12 8 9 9
-13 5 -39 -9 -67 9 -67 43 0 38 22 55 63 47 30 -5 31 -5 13 9 -26 20 -38 19
-70 -6z"/>
<path d="M2830 3945 c0 -37 4 -65 10 -65 6 0 10 28 10 65 0 37 -4 65 -10 65
-6 0 -10 -28 -10 -65z"/>
<path d="M5065 4000 c-3 -6 1 -7 9 -4 18 7 21 14 7 14 -6 0 -13 -4 -16 -10z"/>
<path d="M5750 3990 c0 -16 -7 -20 -30 -20 -52 0 -67 -75 -17 -84 61 -12 67
-6 67 61 0 35 -4 63 -10 63 -5 0 -10 -9 -10 -20z m-2 -61 c4 -30 -22 -46 -44
-28 -15 12 -19 41 -7 53 16 16 48 1 51 -25z"/>
<path d="M6160 3990 c0 -15 -7 -20 -28 -20 -34 0 -52 -16 -52 -46 0 -30 20
-44 63 -42 l37 1 0 64 c0 35 -4 63 -10 63 -5 0 -10 -9 -10 -20z m-2 -56 c2
-11 -3 -26 -11 -33 -29 -24 -70 17 -46 46 17 20 53 12 57 -13z"/>
<path d="M6936 3985 c-9 -14 -12 -25 -7 -25 6 0 12 -19 14 -42 l4 -43 1 43 c2
32 6 42 19 42 15 0 14 2 -3 14 -18 14 -18 15 6 25 23 9 23 10 4 10 -13 1 -29
-10 -38 -24z"/>
<path d="M7240 3990 c0 -16 -7 -20 -35 -20 -28 0 -38 -5 -44 -22 -14 -36 9
-63 53 -63 l36 -1 0 63 c0 35 -2 63 -5 63 -3 0 -5 -9 -5 -20z m-11 -44 c23
-28 -17 -68 -45 -45 -15 12 -19 41 -7 52 11 12 40 8 52 -7z"/>
<path d="M2270 3975 c-8 -10 -9 -15 -2 -15 6 0 12 -17 14 -37 2 -29 8 -39 23
-41 18 -2 18 -2 3 8 -23 14 -24 67 -3 72 13 2 12 5 -4 15 -15 10 -22 9 -31 -2z"/>
<path d="M2350 3975 c-8 -10 -9 -15 -2 -15 6 0 12 -17 14 -37 2 -29 8 -39 23
-41 18 -2 18 -2 3 8 -23 14 -24 67 -3 72 13 2 12 5 -4 15 -15 10 -22 9 -31 -2z"/>
<path d="M3020 3975 c-8 -10 -9 -15 -2 -15 6 0 12 -17 14 -37 2 -29 8 -39 23
-41 18 -2 18 -2 3 8 -23 14 -24 67 -3 72 13 2 12 5 -4 15 -15 10 -22 9 -31 -2z"/>
<path d="M3690 3975 c-8 -10 -9 -15 -2 -15 6 0 12 -17 14 -37 2 -29 8 -39 23
-41 18 -2 18 -2 3 8 -23 14 -24 67 -3 72 13 2 12 5 -4 15 -15 10 -22 9 -31 -2z"/>
<path d="M6790 3975 c-8 -10 -9 -15 -2 -15 6 0 12 -17 14 -37 2 -29 8 -39 23
-41 18 -2 18 -2 3 8 -23 14 -24 67 -3 72 13 2 12 5 -4 15 -15 10 -22 9 -31 -2z"/>
<path d="M7807 3983 c-3 -5 -2 -28 2 -53 5 -39 9 -45 31 -47 14 -1 18 0 8 3
-13 4 -18 16 -18 40 0 19 5 34 11 34 6 0 4 7 -5 15 -16 17 -23 18 -29 8z"/>
<path d="M8119 3978 c-5 -59 11 -98 40 -98 14 1 14 2 -1 11 -20 11 -25 69 -7
69 6 0 4 7 -5 15 -18 18 -26 19 -27 3z"/>
<path d="M2151 3948 c-17 -43 42 -90 73 -58 8 9 5 10 -15 5 -17 -4 -30 -1 -38
9 -12 14 -8 16 28 16 44 0 46 2 31 31 -16 28 -68 26 -79 -3z m67 -5 c2 -9 -7
-13 -27 -13 -30 0 -39 9 -24 24 11 10 46 3 51 -11z"/>
<path d="M2431 3948 c-17 -43 42 -90 73 -58 8 9 5 10 -15 5 -17 -4 -30 -1 -38
9 -12 14 -8 16 28 16 44 0 46 2 31 31 -16 28 -68 26 -79 -3z m67 -5 c2 -9 -7
-13 -27 -13 -30 0 -39 9 -24 24 11 10 46 3 51 -11z"/>
<path d="M2605 3960 c-9 -15 14 -40 37 -40 11 0 18 -5 15 -12 -2 -7 -16 -12
-31 -11 -14 1 -24 -2 -21 -8 10 -14 51 -11 65 6 15 18 6 31 -24 37 -31 5 -30
26 1 31 27 4 27 4 -4 6 -17 0 -35 -4 -38 -9z"/>
<path d="M2708 3945 c-10 -22 -9 -29 9 -47 28 -27 70 -18 79 17 8 33 -11 55
-47 55 -22 0 -32 -7 -41 -25z m70 -16 c4 -30 -22 -46 -44 -28 -15 12 -19 41
-7 53 16 16 48 1 51 -25z"/>
<path d="M2890 3936 c0 -41 16 -56 58 -53 31 2 32 3 31 47 -1 45 -1 45 -9 11
-15 -61 -53 -66 -58 -8 -4 46 -22 49 -22 3z"/>
<path d="M3113 3925 c0 -27 2 -38 4 -22 2 15 2 37 0 50 -2 12 -4 0 -4 -28z"/>
<path d="M3172 3958 c-28 -28 -7 -78 34 -78 29 0 46 23 42 57 -2 23 -8 29 -33
31 -17 2 -36 -3 -43 -10z m63 -27 c0 -34 -30 -51 -51 -29 -25 24 -10 60 24 56
21 -2 27 -8 27 -27z"/>
<path d="M3291 3923 c1 -27 3 -39 6 -28 2 11 6 30 9 43 3 17 10 22 27 20 18
-2 23 -11 25 -40 4 -45 22 -51 22 -9 0 50 -9 61 -51 61 l-39 0 1 -47z"/>
<path d="M3480 3956 c-19 -24 -8 -60 23 -70 20 -7 30 -6 40 4 10 10 9 12 -5 7
-21 -7 -48 1 -48 14 0 5 16 9 35 9 35 0 40 5 29 34 -8 20 -57 21 -74 2z m64
-11 c4 -11 -2 -15 -24 -15 -20 0 -30 5 -30 15 0 9 9 15 24 15 13 0 26 -7 30
-15z"/>
<path d="M3597 3963 c-15 -14 -5 -32 24 -42 37 -13 29 -36 -10 -26 -19 5 -23
4 -15 -5 18 -19 59 -8 62 16 2 17 -4 23 -29 28 -36 7 -30 21 11 29 22 4 21 4
-6 6 -17 0 -34 -2 -37 -6z"/>
<path d="M3840 3956 c-19 -24 -8 -60 23 -70 20 -7 30 -6 40 3 10 11 8 12 -9 7
-21 -6 -54 14 -54 33 0 16 30 33 50 28 11 -3 20 -1 20 4 0 15 -56 10 -70 -5z"/>
<path d="M3952 3958 c-27 -27 -1 -78 38 -78 29 0 54 43 40 69 -12 24 -58 29
-78 9z m66 -24 c4 -25 -19 -47 -41 -38 -22 8 -30 34 -16 51 17 20 53 12 57
-13z"/>
<path d="M4070 3926 c0 -55 17 -62 22 -8 2 29 7 38 25 40 17 2 24 -3 27 -20
13 -58 14 -60 13 -18 l-2 45 -42 3 -43 3 0 -45z"/>
<path d="M4203 3953 c-3 -10 -8 -21 -10 -25 -2 -4 11 -23 28 -42 25 -29 28
-36 13 -36 -9 0 -15 -3 -11 -6 3 -4 14 -4 23 0 13 5 14 9 4 21 -10 12 -10 15
3 15 9 0 19 5 22 11 4 6 -3 9 -20 7 -31 -3 -52 20 -41 47 5 13 13 16 37 11 18
-3 28 -2 24 4 -11 17 -65 12 -72 -7z"/>
<path d="M4310 3936 c0 -41 16 -56 58 -53 31 2 32 3 31 47 -1 45 -1 45 -9 11
-15 -61 -53 -66 -58 -8 -4 46 -22 49 -22 3z"/>
<path d="M4500 3910 c0 -33 4 -60 10 -60 6 0 10 9 10 21 0 12 4 17 11 14 20
-13 59 5 65 30 9 36 -11 55 -57 55 l-39 0 0 -60z m80 31 c7 -15 6 -24 -6 -36
-9 -9 -21 -14 -27 -12 -18 6 -31 33 -24 51 9 22 44 20 57 -3z"/>
<path d="M4637 3963 c-13 -12 -7 -61 9 -73 38 -32 95 27 64 66 -13 14 -61 19
-73 7z m62 -17 c14 -16 5 -42 -16 -50 -29 -11 -58 35 -36 57 11 12 40 8 52 -7z"/>
<path d="M4762 3933 c-2 -37 1 -43 21 -47 51 -11 57 -6 55 43 -1 36 -2 39 -5
14 -5 -40 -27 -60 -47 -43 -8 6 -17 26 -19 43 -3 27 -4 25 -5 -10z"/>
<path d="M4892 3923 c1 -37 2 -40 5 -16 3 19 14 39 26 48 21 15 21 15 -6 15
-26 0 -27 -2 -25 -47z"/>
<path d="M5030 3956 c-19 -24 -8 -60 23 -70 20 -7 30 -6 40 4 10 10 9 12 -5 7
-21 -7 -48 1 -48 14 0 5 16 9 35 9 35 0 40 5 29 34 -8 20 -57 21 -74 2z m64
-11 c4 -11 -2 -15 -24 -15 -20 0 -30 5 -30 15 0 9 9 15 24 15 13 0 26 -7 30
-15z"/>
<path d="M5152 3923 c1 -37 2 -40 5 -16 3 19 14 39 26 48 21 15 21 15 -6 15
-26 0 -27 -2 -25 -47z"/>
<path d="M5230 3925 c0 -25 5 -45 10 -45 6 0 10 20 10 45 0 25 -4 45 -10 45
-5 0 -10 -20 -10 -45z"/>
<path d="M5292 3958 c-29 -29 -5 -68 41 -68 19 0 27 -4 24 -12 -2 -7 -18 -13
-35 -13 -18 0 -32 -3 -32 -7 0 -5 16 -8 35 -8 41 0 55 20 55 79 0 41 0 41 -38
41 -21 0 -43 -5 -50 -12z m63 -28 c0 -30 -35 -40 -55 -15 -10 12 -10 18 0 30
20 25 55 15 55 -15z"/>
<path d="M5421 3948 c-17 -43 42 -90 73 -58 8 9 5 10 -15 5 -17 -4 -30 -1 -38
9 -12 14 -8 16 28 16 44 0 46 2 31 31 -16 28 -68 26 -79 -3z m67 -5 c2 -9 -7
-13 -27 -13 -30 0 -39 9 -24 24 11 10 46 3 51 -11z"/>
<path d="M5540 3925 c0 -25 5 -45 10 -45 6 0 10 16 10 35 0 22 6 38 18 44 14
9 13 10 -10 11 -26 0 -28 -3 -28 -45z"/>
<path d="M5811 3948 c-17 -43 42 -90 73 -58 8 9 5 10 -15 5 -17 -4 -30 -1 -38
9 -12 14 -8 16 28 16 44 0 46 2 31 31 -16 28 -68 26 -79 -3z m67 -5 c2 -9 -7
-13 -27 -13 -30 0 -39 9 -24 24 11 10 46 3 51 -11z"/>
<path d="M5927 3956 c-7 -17 11 -36 35 -36 10 0 18 -7 18 -16 0 -13 -7 -15
-30 -10 -19 3 -29 2 -25 -4 7 -11 35 -13 59 -4 26 10 18 34 -14 45 -37 14 -38
26 -2 32 26 4 26 4 -4 6 -19 0 -34 -5 -37 -13z"/>
<path d="M6220 3925 c0 -25 5 -45 10 -45 6 0 10 20 10 45 0 25 -4 45 -10 45
-5 0 -10 -20 -10 -45z"/>
<path d="M6275 3960 c-9 -15 14 -40 37 -40 11 0 18 -5 15 -12 -2 -7 -16 -12
-31 -11 -14 1 -24 -2 -21 -8 10 -14 51 -11 65 6 15 18 6 31 -24 37 -31 5 -30
26 1 31 27 4 27 4 -4 6 -17 0 -35 -4 -38 -9z"/>
<path d="M6381 3906 c1 -34 4 -51 6 -39 4 18 9 21 32 17 34 -7 54 14 49 53 -3
26 -7 28 -45 29 l-43 1 1 -61z m74 25 c0 -34 -30 -51 -51 -29 -25 24 -10 60
24 56 21 -2 27 -8 27 -27z"/>
<path d="M6508 3945 c-10 -22 -9 -29 9 -47 28 -27 70 -18 79 17 8 33 -11 55
-47 55 -22 0 -32 -7 -41 -25z m70 -16 c4 -30 -22 -46 -44 -28 -15 12 -19 41
-7 53 16 16 48 1 51 -25z"/>
<path d="M6627 3956 c-7 -17 11 -36 35 -36 10 0 18 -7 18 -16 0 -13 -7 -15
-30 -10 -19 3 -29 2 -25 -4 7 -11 35 -13 59 -4 26 10 18 34 -14 45 -37 14 -38
26 -2 32 26 4 26 4 -4 6 -19 0 -34 -5 -37 -13z"/>
<path d="M6730 3925 c0 -25 5 -45 10 -45 6 0 10 20 10 45 0 25 -4 45 -10 45
-5 0 -10 -20 -10 -45z"/>
<path d="M6883 3925 c0 -27 2 -38 4 -22 2 15 2 37 0 50 -2 12 -4 0 -4 -28z"/>
<path d="M7007 3963 c-15 -14 -5 -32 24 -42 37 -13 29 -36 -10 -26 -19 5 -23
4 -15 -5 18 -19 59 -8 62 16 2 17 -4 23 -29 28 -36 7 -30 21 11 29 22 4 21 4
-6 6 -17 0 -34 -2 -37 -6z"/>
<path d="M7294 3943 c-4 -14 -2 -33 3 -42 13 -20 52 -26 67 -11 8 9 5 10 -15
5 -17 -4 -30 -1 -38 9 -12 14 -8 16 28 16 27 0 41 4 41 13 0 21 -22 37 -52 37
-22 0 -29 -6 -34 -27z m66 2 c0 -10 -10 -15 -30 -15 -22 0 -28 4 -24 15 4 8
17 15 30 15 15 0 24 -6 24 -15z"/>
<path d="M7470 3910 c0 -33 4 -60 10 -60 6 0 10 9 10 21 0 12 4 17 11 14 20
-13 59 5 65 30 9 36 -11 55 -57 55 l-39 0 0 -60z m80 31 c7 -15 6 -24 -6 -36
-9 -9 -21 -14 -27 -12 -18 6 -31 33 -24 51 9 22 44 20 57 -3z"/>
<path d="M7611 3920 l2 -45 6 39 c4 26 13 42 26 47 17 6 15 7 -7 6 -26 -1 -28
-4 -27 -47z"/>
<path d="M7692 3958 c-28 -28 -7 -78 34 -78 29 0 46 23 42 57 -2 23 -8 29 -33
31 -17 2 -36 -3 -43 -10z m63 -27 c0 -34 -30 -51 -51 -29 -25 24 -10 60 24 56
21 -2 27 -8 27 -27z"/>
<path d="M7890 3956 c-19 -24 -8 -60 23 -70 20 -7 30 -6 40 4 10 10 9 12 -5 7
-21 -7 -48 1 -48 14 0 5 16 9 35 9 35 0 40 5 29 34 -8 20 -57 21 -74 2z m64
-11 c4 -11 -2 -15 -24 -15 -20 0 -30 5 -30 15 0 9 9 15 24 15 13 0 26 -7 30
-15z"/>
<path d="M8010 3956 c-19 -24 -8 -60 23 -70 20 -7 30 -6 40 3 10 11 8 12 -9 7
-21 -6 -54 14 -54 33 0 16 30 33 50 28 11 -3 20 -1 20 4 0 15 -56 10 -70 -5z"/>
<path d="M8200 3925 c0 -25 5 -45 10 -45 6 0 10 20 10 45 0 25 -4 45 -10 45
-5 0 -10 -20 -10 -45z"/>
<path d="M8267 3963 c-13 -12 -7 -61 9 -73 38 -32 95 27 64 66 -13 14 -61 19
-73 7z m62 -17 c23 -28 -17 -68 -45 -45 -15 12 -19 41 -7 52 11 12 40 8 52 -7z"/>
<path d="M8391 3921 l2 -46 6 40 c5 34 10 40 31 40 21 0 26 -6 31 -40 l7 -40
-2 45 c-1 45 -1 45 -38 46 l-38 1 1 -46z"/>
<path d="M2720 3665 c0 -37 4 -65 10 -65 6 0 10 28 10 65 0 37 -4 65 -10 65
-6 0 -10 -28 -10 -65z"/>
<path d="M3170 3665 c0 -69 17 -90 22 -27 2 29 7 38 25 40 17 2 24 -3 27 -20
13 -58 14 -60 13 -18 -2 43 -3 45 -34 48 -25 2 -33 8 -33 23 0 10 -4 19 -10
19 -6 0 -10 -28 -10 -65z"/>
<path d="M3860 3710 c0 -15 -7 -20 -28 -20 -34 0 -52 -16 -52 -46 0 -30 20
-44 63 -42 l37 1 0 64 c0 35 -4 63 -10 63 -5 0 -10 -9 -10 -20z m-2 -56 c4
-25 -19 -47 -41 -38 -22 8 -30 34 -16 51 17 20 53 12 57 -13z"/>
<path d="M4101 3670 l-1 -66 36 1 c43 0 60 20 50 59 -6 25 -11 28 -41 24 -30
-3 -35 -1 -38 22 -2 14 -5 -4 -6 -40z m74 -11 c14 -42 -45 -66 -61 -24 -10 25
4 45 30 45 16 0 27 -7 31 -21z"/>
<path d="M4233 3665 c0 -38 2 -53 4 -32 2 20 2 52 0 70 -2 17 -4 1 -4 -38z"/>
<path d="M4860 3707 c0 -20 -4 -23 -35 -19 -30 4 -35 1 -41 -24 -10 -39 7 -59
50 -59 l36 -1 0 63 c0 35 -2 63 -5 63 -3 0 -5 -10 -5 -23z m-5 -56 c0 -34 -30
-51 -51 -29 -25 24 -10 60 24 56 21 -2 27 -8 27 -27z"/>
<path d="M6230 3710 c0 -15 -7 -20 -28 -20 -34 0 -52 -16 -52 -46 0 -30 20
-44 63 -42 l37 1 0 64 c0 35 -4 63 -10 63 -5 0 -10 -9 -10 -20z m-2 -56 c2
-11 -3 -26 -11 -33 -29 -24 -70 17 -46 46 17 20 53 12 57 -13z"/>
<path d="M8190 3710 c0 -16 -7 -20 -30 -20 -52 0 -67 -75 -17 -84 61 -12 67
-6 67 61 0 35 -4 63 -10 63 -5 0 -10 -9 -10 -20z m-2 -61 c4 -30 -22 -46 -44
-28 -15 12 -19 41 -7 53 16 16 48 1 51 -25z"/>
<path d="M2380 3695 c-8 -10 -9 -15 -2 -15 6 0 12 -17 14 -37 2 -29 8 -39 23
-41 18 -2 18 -2 3 8 -23 14 -24 67 -3 72 13 2 12 5 -4 15 -15 10 -22 9 -31 -2z"/>
<path d="M3430 3695 c-8 -10 -9 -15 -2 -15 6 0 12 -17 14 -37 2 -29 8 -39 23
-41 18 -2 18 -2 3 8 -23 14 -24 67 -3 72 13 2 12 5 -4 15 -15 10 -22 9 -31 -2z"/>
<path d="M6819 3698 c-5 -59 11 -98 40 -98 14 1 14 2 -1 11 -20 11 -25 69 -7
69 6 0 4 7 -5 15 -18 18 -26 19 -27 3z"/>
<path d="M7719 3698 c-5 -59 11 -98 40 -98 14 1 14 2 -1 11 -20 11 -25 69 -7
69 6 0 4 7 -5 15 -18 18 -26 19 -27 3z"/>
<path d="M7979 3698 c-5 -59 11 -98 40 -98 14 1 14 2 -1 11 -20 11 -25 69 -7
69 6 0 4 7 -5 15 -18 18 -26 19 -27 3z"/>
<path d="M2020 3676 c-19 -24 -8 -60 23 -70 20 -7 30 -6 40 3 10 11 8 12 -9 7
-21 -6 -54 14 -54 33 0 16 30 33 50 28 11 -3 20 -1 20 4 0 15 -56 10 -70 -5z"/>
<path d="M2132 3678 c-27 -27 -1 -78 38 -78 29 0 54 43 40 69 -12 24 -58 29
-78 9z m66 -24 c2 -11 -3 -26 -11 -33 -29 -24 -70 17 -46 46 17 20 53 12 57
-13z"/>
<path d="M2250 3646 c0 -55 17 -62 22 -8 2 29 7 38 25 40 17 2 24 -3 27 -20
13 -58 14 -60 13 -18 l-2 45 -42 3 -43 3 0 -45z"/>
<path d="M2471 3640 l2 -45 6 39 c4 26 13 42 26 47 17 6 15 7 -7 6 -26 -1 -28
-4 -27 -47z"/>
<path d="M2550 3676 c-19 -24 -8 -60 23 -70 20 -7 30 -6 40 4 10 10 9 12 -5 7
-21 -7 -48 1 -48 14 0 5 16 9 35 9 35 0 40 5 29 34 -8 20 -57 21 -74 2z m64
-11 c4 -11 -2 -15 -24 -15 -20 0 -30 5 -30 15 0 9 9 15 24 15 13 0 26 -7 30
-15z"/>
<path d="M2781 3668 c-17 -43 42 -90 73 -58 8 9 5 10 -15 5 -17 -4 -30 -1 -38
9 -12 14 -8 16 28 16 44 0 46 2 31 31 -16 28 -68 26 -79 -3z m67 -5 c2 -9 -7
-13 -27 -13 -30 0 -39 9 -24 24 11 10 46 3 51 -11z"/>
<path d="M2897 3676 c-7 -17 11 -36 35 -36 10 0 18 -7 18 -16 0 -13 -7 -15
-30 -10 -19 3 -29 2 -25 -4 7 -11 35 -13 59 -4 26 10 18 34 -14 45 -37 14 -38
26 -2 32 26 4 26 4 -4 6 -19 0 -34 -5 -37 -13z"/>
<path d="M3060 3676 c-19 -24 -8 -60 23 -70 20 -7 30 -6 40 3 10 11 8 12 -9 7
-21 -6 -54 14 -54 33 0 16 30 33 50 28 11 -3 20 -1 20 4 0 15 -56 10 -70 -5z"/>
<path d="M3300 3656 c0 -41 15 -55 58 -54 31 1 32 2 32 45 0 23 -4 43 -10 43
-5 0 -10 -15 -10 -34 0 -22 -6 -36 -16 -40 -24 -9 -34 2 -34 40 0 19 -4 34
-10 34 -5 0 -10 -15 -10 -34z"/>
<path d="M3511 3668 c-17 -43 42 -90 73 -58 8 9 5 10 -15 5 -17 -4 -30 -1 -38
9 -12 14 -8 16 28 16 44 0 46 2 31 31 -16 28 -68 26 -79 -3z m67 -5 c2 -9 -7
-13 -27 -13 -30 0 -39 9 -24 24 11 10 46 3 51 -11z"/>
<path d="M3625 3680 c-9 -15 14 -40 37 -40 11 0 18 -5 15 -12 -2 -7 -16 -12
-31 -11 -14 1 -24 -2 -21 -8 10 -14 51 -11 65 6 15 18 6 31 -24 37 -31 5 -30
26 1 31 27 4 27 4 -4 6 -17 0 -35 -4 -38 -9z"/>
<path d="M3918 3666 c-9 -22 -8 -29 7 -46 20 -22 60 -27 71 -8 5 8 2 9 -11 4
-21 -8 -55 1 -55 15 0 5 16 9 36 9 31 0 35 3 32 23 -2 17 -11 23 -35 25 -27 3
-35 -1 -45 -22z m70 -3 c2 -9 -7 -13 -27 -13 -30 0 -39 9 -24 24 11 10 46 3
51 -11z"/>
<path d="M4292 3678 c-27 -27 -1 -78 38 -78 29 0 54 43 40 69 -12 24 -58 29
-78 9z m66 -24 c4 -25 -19 -47 -41 -38 -22 8 -30 34 -16 51 17 20 53 12 57
-13z"/>
<path d="M4408 3665 c-19 -43 32 -82 72 -55 12 8 8 10 -14 8 -32 -3 -53 19
-42 47 5 13 13 16 37 11 18 -3 28 -2 24 4 -3 6 -20 10 -36 10 -22 0 -32 -7
-41 -25z"/>
<path d="M4517 3676 c-7 -17 11 -36 35 -36 10 0 18 -7 18 -16 0 -13 -7 -15
-30 -10 -19 3 -29 2 -25 -4 7 -11 35 -13 59 -4 26 10 18 34 -14 45 -37 14 -38
26 -2 32 26 4 26 4 -4 6 -19 0 -34 -5 -37 -13z"/>
<path d="M4920 3676 c-19 -24 -8 -60 23 -70 20 -7 30 -6 40 4 10 10 9 12 -5 7
-21 -7 -48 1 -48 14 0 5 16 9 35 9 35 0 40 5 29 34 -8 20 -57 21 -74 2z m64
-11 c4 -11 -2 -15 -24 -15 -20 0 -30 5 -30 15 0 9 9 15 24 15 13 0 26 -7 30
-15z"/>
<path d="M5037 3683 c-15 -14 -5 -32 24 -42 37 -13 29 -36 -10 -26 -19 5 -23
4 -15 -5 18 -19 59 -8 62 16 2 17 -4 23 -29 28 -36 7 -30 21 11 29 22 4 21 4
-6 6 -17 0 -34 -2 -37 -6z"/>
<path d="M5197 3683 c-13 -12 -7 -61 9 -73 38 -32 95 27 64 66 -13 14 -61 19
-73 7z m62 -17 c23 -28 -17 -68 -45 -45 -15 12 -19 41 -7 52 11 12 40 8 52 -7z"/>
<path d="M5322 3653 c-2 -37 1 -43 21 -47 51 -11 57 -6 55 43 -1 36 -2 39 -5
14 -5 -40 -27 -60 -47 -43 -8 6 -17 26 -19 43 -3 27 -4 25 -5 -10z"/>
<path d="M5440 3685 c0 -13 33 -85 39 -85 4 0 17 20 29 45 12 25 18 45 13 45
-5 0 -14 -13 -21 -30 -7 -16 -16 -30 -20 -30 -5 0 -13 14 -19 30 -8 26 -21 40
-21 25z"/>
<path d="M5562 3643 c1 -37 2 -40 5 -16 3 19 14 39 26 48 21 15 21 15 -6 15
-26 0 -27 -2 -25 -47z"/>
<path d="M5658 3683 c42 -6 44 -33 1 -33 -26 0 -30 -3 -27 -22 2 -19 10 -23
41 -25 34 -1 37 1 37 27 0 49 -9 60 -49 58 l-36 -1 33 -4z m30 -55 c-3 -7 -13
-13 -23 -13 -10 0 -20 6 -22 13 -3 7 5 12 22 12 17 0 25 -5 23 -12z"/>
<path d="M5752 3678 c-29 -29 -5 -68 41 -68 19 0 27 -4 24 -12 -2 -7 -18 -13
-35 -13 -18 0 -32 -3 -32 -7 0 -5 16 -8 35 -8 41 0 55 20 55 79 0 41 0 41 -38
41 -21 0 -43 -5 -50 -12z m63 -28 c0 -30 -35 -40 -55 -15 -10 12 -10 18 0 30
20 25 55 15 55 -15z"/>
<path d="M5881 3668 c-17 -43 42 -90 73 -58 8 9 5 10 -15 5 -17 -4 -30 -1 -38
9 -12 14 -8 16 28 16 44 0 46 2 31 31 -16 28 -68 26 -79 -3z m67 -5 c2 -9 -7
-13 -27 -13 -30 0 -39 9 -24 24 11 10 46 3 51 -11z"/>
<path d="M5995 3680 c-9 -15 14 -40 37 -40 11 0 18 -5 15 -12 -2 -7 -16 -12
-31 -11 -14 1 -24 -2 -21 -8 10 -14 51 -11 65 6 15 18 6 31 -24 37 -31 5 -30
26 1 31 27 4 27 4 -4 6 -17 0 -35 -4 -38 -9z"/>
<path d="M6288 3666 c-9 -22 -8 -29 7 -46 20 -22 60 -27 71 -8 5 8 2 9 -11 4
-21 -8 -55 1 -55 15 0 5 16 9 36 9 31 0 35 3 32 23 -2 17 -11 23 -35 25 -27 3
-35 -1 -45 -22z m70 -3 c2 -9 -7 -13 -27 -13 -30 0 -39 9 -24 24 11 10 46 3
51 -11z"/>
<path d="M6460 3671 c0 -12 11 -23 31 -30 37 -13 29 -36 -10 -26 -19 5 -23 4
-15 -5 17 -17 58 -8 62 13 3 12 -6 21 -27 28 -40 14 -39 27 2 32 31 4 31 4 -5
5 -31 2 -38 -1 -38 -17z"/>
<path d="M6572 3678 c-28 -28 -7 -78 34 -78 29 0 46 23 42 57 -2 23 -8 29 -33
31 -17 2 -36 -3 -43 -10z m63 -27 c0 -34 -30 -51 -51 -29 -25 24 -10 60 24 56
21 -2 27 -8 27 -27z"/>
<path d="M6692 3653 c-2 -37 1 -43 21 -47 51 -11 57 -6 55 43 -1 36 -2 39 -5
14 -2 -17 -11 -37 -19 -43 -20 -17 -42 3 -47 43 -3 27 -4 25 -5 -10z"/>
<path d="M6898 3666 c-9 -22 -8 -29 7 -46 20 -22 60 -27 71 -8 5 8 2 9 -11 4
-21 -8 -55 1 -55 15 0 5 16 9 36 9 31 0 35 3 32 23 -2 17 -11 23 -35 25 -27 3
-35 -1 -45 -22z m70 -3 c2 -9 -7 -13 -27 -13 -30 0 -39 9 -24 24 11 10 46 3
51 -11z"/>
<path d="M7021 3643 c1 -27 3 -39 6 -28 2 11 6 30 9 43 3 17 10 22 27 20 18
-2 23 -11 25 -40 4 -45 22 -51 22 -9 0 50 -9 61 -51 61 l-39 0 1 -47z"/>
<path d="M7148 3666 c-9 -22 -8 -29 7 -46 20 -22 60 -27 71 -8 5 8 2 9 -11 4
-21 -8 -55 1 -55 15 0 5 16 9 36 9 31 0 35 3 32 23 -2 17 -11 23 -35 25 -27 3
-35 -1 -45 -22z m70 -3 c2 -9 -7 -13 -27 -13 -30 0 -39 9 -24 24 11 10 46 3
51 -11z"/>
<path d="M7270 3645 c0 -54 18 -60 22 -7 2 30 7 38 26 40 20 3 22 -1 22 -37 0
-51 18 -54 22 -3 2 30 7 38 26 40 20 3 22 -1 22 -37 0 -23 5 -41 10 -41 12 0
13 59 2 77 -4 6 -36 11 -80 12 l-72 0 0 -44z"/>
<path d="M7470 3676 c-19 -24 -8 -60 23 -70 20 -7 30 -6 40 4 10 10 9 12 -5 7
-21 -7 -48 1 -48 14 0 5 16 9 35 9 35 0 40 5 29 34 -8 20 -57 21 -74 2z m64
-11 c4 -11 -2 -15 -24 -15 -20 0 -30 5 -30 15 0 9 9 15 24 15 13 0 26 -7 30
-15z"/>
<path d="M7591 3643 c1 -27 3 -39 6 -28 2 11 6 30 9 43 3 17 10 22 27 20 18
-2 23 -11 25 -40 4 -45 22 -51 22 -9 0 50 -9 61 -51 61 l-39 0 1 -47z"/>
<path d="M7858 3666 c-9 -22 -8 -29 7 -46 20 -22 60 -27 71 -8 5 8 2 9 -11 4
-21 -8 -55 1 -55 15 0 5 16 9 36 9 31 0 35 3 32 23 -2 17 -11 23 -35 25 -27 3
-35 -1 -45 -22z m70 -3 c2 -9 -7 -13 -27 -13 -30 0 -39 9 -24 24 11 10 46 3
51 -11z"/>
<path d="M8251 3668 c-17 -43 42 -90 73 -58 8 9 5 10 -15 5 -17 -4 -30 -1 -38
9 -12 14 -8 16 28 16 44 0 46 2 31 31 -16 28 -68 26 -79 -3z m67 -5 c2 -9 -7
-13 -27 -13 -30 0 -39 9 -24 24 11 10 46 3 51 -11z"/>
<path d="M4673 3601 c0 -11 5 -17 9 -15 11 7 10 34 -1 34 -6 0 -9 -9 -8 -19z"/>
<path d="M2321 3390 l-1 -65 34 -2 c40 -3 59 15 54 54 -3 25 -7 28 -38 28 -29
0 -36 4 -41 25 -4 15 -7 0 -8 -40z m74 -19 c0 -34 -30 -51 -51 -29 -25 24 -10
60 24 56 21 -2 27 -8 27 -27z"/>
<path d="M2513 3385 c0 -38 2 -53 4 -32 2 20 2 52 0 70 -2 17 -4 1 -4 -38z"/>
<path d="M3370 3430 c0 -15 -7 -20 -28 -20 -34 0 -52 -16 -52 -46 0 -30 20
-44 63 -42 l37 1 0 64 c0 35 -4 63 -10 63 -5 0 -10 -9 -10 -20z m-2 -56 c4
-25 -19 -47 -41 -38 -22 8 -30 34 -16 51 17 20 53 12 57 -13z"/>
<path d="M4780 3430 c0 -16 -7 -20 -35 -20 -28 0 -38 -5 -44 -22 -14 -36 9
-63 53 -63 l36 -1 0 63 c0 35 -2 63 -5 63 -3 0 -5 -9 -5 -20z m-11 -44 c14
-16 5 -42 -16 -50 -29 -11 -58 35 -36 57 11 12 40 8 52 -7z"/>
<path d="M5240 3385 c0 -37 4 -65 10 -65 6 0 10 28 10 65 0 37 -4 65 -10 65
-6 0 -10 -28 -10 -65z"/>
<path d="M5740 3427 c0 -20 -4 -23 -35 -19 -30 4 -35 1 -41 -24 -10 -39 7 -59
50 -59 l36 -1 0 63 c0 35 -2 63 -5 63 -3 0 -5 -10 -5 -23z m-5 -56 c0 -34 -30
-51 -51 -29 -25 24 -10 60 24 56 21 -2 27 -8 27 -27z"/>
<path d="M6342 3433 c-11 -22 -3 -113 9 -113 5 0 9 18 9 40 0 24 5 40 12 40 6
0 3 6 -8 14 -18 14 -18 15 6 25 24 9 24 10 3 10 -12 1 -26 -7 -31 -16z"/>
<path d="M2117 3423 c-3 -5 -2 -28 2 -53 5 -39 9 -45 31 -47 14 -1 18 0 8 3
-13 4 -18 16 -18 40 0 19 5 34 11 34 6 0 4 7 -5 15 -16 17 -23 18 -29 8z"/>
<path d="M2840 3415 c-8 -10 -9 -15 -2 -15 6 0 12 -17 14 -37 2 -29 8 -39 23
-41 18 -2 18 -2 3 8 -23 14 -24 67 -3 72 13 2 12 5 -4 15 -15 10 -22 9 -31 -2z"/>
<path d="M4087 3423 c-3 -5 -2 -28 2 -53 5 -39 9 -45 31 -47 14 -1 18 0 8 3
-13 4 -18 16 -18 40 0 19 5 34 11 34 6 0 4 7 -5 15 -16 17 -23 18 -29 8z"/>
<path d="M4560 3415 c-8 -10 -9 -15 -2 -15 6 0 12 -17 14 -37 2 -29 8 -39 23
-41 18 -2 18 -2 3 8 -23 14 -24 67 -3 72 13 2 12 5 -4 15 -15 10 -22 9 -31 -2z"/>
<path d="M5420 3415 c-8 -10 -9 -15 -2 -15 6 0 12 -17 14 -37 2 -29 8 -39 23
-41 18 -2 18 -2 3 8 -23 14 -24 67 -3 72 13 2 12 5 -4 15 -15 10 -22 9 -31 -2z"/>
<path d="M6617 3423 c-3 -5 -2 -28 2 -53 5 -39 9 -45 31 -47 14 -1 18 0 8 3
-13 4 -18 16 -18 40 0 19 5 34 11 34 6 0 4 7 -5 15 -16 17 -23 18 -29 8z"/>
<path d="M7267 3423 c-3 -5 -2 -28 2 -53 5 -39 9 -45 31 -47 14 -1 18 0 8 3
-13 4 -18 16 -18 40 0 19 5 34 11 34 6 0 4 7 -5 15 -16 17 -23 18 -29 8z"/>
<path d="M7527 3423 c-3 -5 -2 -28 2 -53 5 -39 9 -45 31 -47 14 -1 18 0 8 3
-13 4 -18 16 -18 40 0 19 5 34 11 34 6 0 4 7 -5 15 -16 17 -23 18 -29 8z"/>
<path d="M2017 3403 c-15 -14 -5 -32 24 -42 37 -13 29 -36 -10 -26 -19 5 -23
4 -15 -5 18 -19 59 -8 62 16 2 17 -4 23 -29 28 -36 7 -30 21 11 29 22 4 21 4
-6 6 -17 0 -34 -2 -37 -6z"/>
<path d="M2224 3401 c40 -8 46 -31 8 -31 -33 0 -48 -22 -28 -39 7 -6 25 -10
40 -9 24 2 26 6 26 45 l0 43 -37 -1 c-36 -1 -36 -2 -9 -8z m34 -53 c-3 -7 -13
-13 -23 -13 -10 0 -20 6 -22 13 -3 7 5 12 22 12 17 0 25 -5 23 -12z"/>
<path d="M2453 3365 c0 -27 2 -38 4 -22 2 15 2 37 0 50 -2 12 -4 0 -4 -28z"/>
<path d="M2573 3365 c0 -27 2 -38 4 -22 2 15 2 37 0 50 -2 12 -4 0 -4 -28z"/>
<path d="M2627 3403 c-15 -14 -5 -32 24 -42 37 -13 29 -36 -10 -26 -19 5 -23
4 -15 -5 18 -19 59 -8 62 16 2 17 -4 23 -29 28 -36 7 -30 21 11 29 22 4 21 4
-6 6 -17 0 -34 -2 -37 -6z"/>
<path d="M2748 3403 c39 -5 43 -30 5 -35 -20 -2 -28 -9 -28 -23 0 -16 7 -20
38 -20 l38 -1 -3 41 c-3 39 -4 40 -43 41 -32 1 -34 1 -7 -3z m30 -59 c-9 -10
-24 -14 -33 -10 -23 9 -9 26 23 26 24 0 25 -1 10 -16z"/>
<path d="M2933 3365 c0 -27 2 -38 4 -22 2 15 2 37 0 50 -2 12 -4 0 -4 -28z"/>
<path d="M2992 3398 c-28 -28 -7 -78 34 -78 29 0 46 23 42 57 -2 23 -8 29 -33
31 -17 2 -36 -3 -43 -10z m63 -27 c0 -34 -30 -51 -51 -29 -25 24 -10 60 24 56
21 -2 27 -8 27 -27z"/>
<path d="M3111 3363 c1 -27 3 -39 6 -28 2 11 6 30 9 43 3 17 10 22 27 20 18
-2 23 -11 25 -40 4 -45 22 -51 22 -9 0 50 -9 61 -51 61 l-39 0 1 -47z"/>
<path d="M3428 3386 c-9 -22 -8 -29 7 -46 20 -22 60 -27 71 -8 5 8 2 9 -11 4
-21 -8 -55 1 -55 15 0 5 16 9 36 9 31 0 35 3 32 23 -2 17 -11 23 -35 25 -27 3
-35 -1 -45 -22z m70 -3 c2 -9 -7 -13 -27 -13 -30 0 -39 9 -24 24 11 10 46 3
51 -11z"/>
<path d="M3547 3403 c-15 -14 -5 -32 24 -42 37 -13 29 -36 -10 -26 -19 5 -23
4 -15 -5 18 -19 59 -8 62 16 2 17 -4 23 -29 28 -36 7 -30 21 11 29 22 4 21 4
-6 6 -17 0 -34 -2 -37 -6z"/>
<path d="M3711 3346 c1 -34 4 -51 6 -40 3 17 11 22 35 20 37 -1 54 21 44 58
-6 24 -11 27 -46 24 l-40 -2 1 -60z m74 33 c14 -42 -45 -66 -61 -24 -10 25 4
45 30 45 16 0 27 -7 31 -21z"/>
<path d="M3840 3396 c-19 -24 -8 -60 23 -70 20 -7 30 -6 40 4 10 10 9 12 -5 7
-21 -7 -48 1 -48 14 0 5 16 9 35 9 35 0 40 5 29 34 -8 20 -57 21 -74 2z m64
-11 c4 -11 -2 -15 -24 -15 -20 0 -30 5 -30 15 0 9 9 15 24 15 13 0 26 -7 30
-15z"/>
<path d="M3961 3361 l2 -46 6 40 c5 34 10 40 31 40 21 0 26 -6 31 -40 l7 -40
-2 45 c-1 45 -1 45 -38 46 l-38 1 1 -46z"/>
<path d="M4170 3396 c-19 -24 -8 -60 23 -70 20 -7 30 -6 40 4 10 10 9 12 -5 7
-21 -7 -48 1 -48 14 0 5 16 9 35 9 35 0 40 5 29 34 -8 20 -57 21 -74 2z m64
-11 c4 -11 -2 -15 -24 -15 -20 0 -30 5 -30 15 0 9 9 15 24 15 13 0 26 -7 30
-15z"/>
<path d="M4287 3403 c-15 -14 -5 -32 24 -42 37 -13 29 -36 -10 -26 -19 5 -23
4 -15 -5 18 -19 59 -8 62 16 2 17 -4 23 -29 28 -36 7 -30 21 11 29 22 4 21 4
-6 6 -17 0 -34 -2 -37 -6z"/>
<path d="M4441 3388 c-17 -43 42 -90 73 -58 8 9 5 10 -15 5 -17 -4 -30 -1 -38
9 -12 14 -8 16 28 16 44 0 46 2 31 31 -16 28 -68 26 -79 -3z m67 -5 c2 -9 -7
-13 -27 -13 -30 0 -39 9 -24 24 11 10 46 3 51 -11z"/>
<path d="M4834 3383 c-4 -14 -2 -33 3 -42 13 -20 52 -26 67 -11 8 9 5 10 -15
5 -17 -4 -30 -1 -38 9 -12 14 -8 16 28 16 27 0 41 4 41 13 0 21 -22 37 -52 37
-22 0 -29 -6 -34 -27z m66 2 c0 -10 -10 -15 -30 -15 -22 0 -28 4 -24 15 4 8
17 15 30 15 15 0 24 -6 24 -15z"/>
<path d="M4950 3391 c0 -12 11 -23 31 -30 37 -13 29 -36 -10 -26 -19 5 -23 4
-15 -5 17 -17 58 -8 62 13 3 12 -6 21 -27 28 -40 14 -39 27 2 32 31 4 31 4 -5
5 -31 2 -38 -1 -38 -17z"/>
<path d="M5110 3350 c0 -33 4 -60 10 -60 6 0 10 9 10 21 0 12 4 17 11 14 20
-13 59 5 65 30 9 36 -11 55 -57 55 l-39 0 0 -60z m78 19 c3 -28 -16 -43 -43
-33 -15 6 -21 45 -8 58 16 16 48 1 51 -25z"/>
<path d="M5307 3403 c-13 -12 -7 -61 9 -73 38 -32 95 27 64 66 -13 14 -61 19
-73 7z m62 -17 c23 -28 -17 -68 -45 -45 -15 12 -19 41 -7 52 11 12 40 8 52 -7z"/>
<path d="M5507 3403 c-15 -14 -5 -32 24 -42 37 -13 29 -36 -10 -26 -19 5 -23
4 -15 -5 18 -19 59 -8 62 16 2 17 -4 23 -29 28 -36 7 -30 21 11 29 22 4 21 4
-6 6 -17 0 -34 -2 -37 -6z"/>
<path d="M5800 3396 c-19 -24 -8 -60 23 -70 20 -7 30 -6 40 4 10 10 9 12 -5 7
-21 -7 -48 1 -48 14 0 5 16 9 35 9 35 0 40 5 29 34 -8 20 -57 21 -74 2z m64
-11 c4 -11 -2 -15 -24 -15 -20 0 -30 5 -30 15 0 9 9 15 24 15 13 0 26 -7 30
-15z"/>
<path d="M5971 3388 c-17 -43 42 -90 73 -58 8 8 4 11 -18 8 -32 -3 -53 19 -42
47 5 13 13 16 37 11 18 -3 28 -2 24 4 -3 6 -20 10 -36 10 -21 0 -32 -6 -38
-22z"/>
<path d="M6092 3398 c-28 -28 -7 -78 34 -78 29 0 46 23 42 57 -2 23 -8 29 -33
31 -17 2 -36 -3 -43 -10z m63 -27 c0 -34 -30 -51 -51 -29 -25 24 -10 60 24 56
21 -2 27 -8 27 -27z"/>
<path d="M6211 3363 c1 -27 3 -39 6 -28 2 11 6 30 9 43 3 17 10 22 27 20 18
-2 23 -11 25 -40 4 -45 22 -51 22 -9 0 50 -9 61 -51 61 l-39 0 1 -47z"/>
<path d="M6408 3385 c-10 -22 -9 -29 9 -47 28 -27 70 -18 79 17 8 33 -11 55
-47 55 -22 0 -32 -7 -41 -25z m70 -16 c4 -30 -22 -46 -44 -28 -15 12 -19 41
-7 53 16 16 48 1 51 -25z"/>
<path d="M6530 3365 c0 -25 5 -45 10 -45 6 0 10 16 10 35 0 22 6 38 18 44 14
9 13 10 -10 11 -26 0 -28 -3 -28 -45z"/>
<path d="M6700 3396 c-19 -24 -8 -60 23 -70 20 -7 30 -6 40 4 10 10 9 12 -5 7
-21 -7 -48 1 -48 14 0 5 16 9 35 9 35 0 40 5 29 34 -8 20 -57 21 -74 2z m64
-11 c4 -11 -2 -15 -24 -15 -20 0 -30 5 -30 15 0 9 9 15 24 15 13 0 26 -7 30
-15z"/>
<path d="M6821 3362 c1 -26 3 -38 6 -27 2 11 6 30 9 43 3 17 10 22 27 20 17
-2 23 -12 28 -43 5 -34 6 -36 8 -10 3 69 52 77 62 10 l7 -40 -2 45 -1 45 -72
2 -73 3 1 -48z"/>
<path d="M7020 3396 c-19 -24 -8 -60 23 -70 20 -7 30 -6 40 4 10 10 9 12 -5 7
-21 -7 -48 1 -48 14 0 5 16 9 35 9 35 0 40 5 29 34 -8 20 -57 21 -74 2z m64
-11 c4 -11 -2 -15 -24 -15 -20 0 -30 5 -30 15 0 9 9 15 24 15 13 0 26 -7 30
-15z"/>
<path d="M7141 3363 c1 -27 3 -39 6 -28 2 11 6 30 9 43 3 17 10 22 27 20 18
-2 23 -11 25 -40 4 -45 22 -51 22 -9 0 50 -9 61 -51 61 l-39 0 1 -47z"/>
<path d="M7408 3386 c-9 -22 -8 -29 7 -46 20 -22 60 -27 71 -8 5 8 2 9 -11 4
-21 -8 -55 1 -55 15 0 5 16 9 36 9 31 0 35 3 32 23 -2 17 -11 23 -35 25 -27 3
-35 -1 -45 -22z m70 -3 c2 -9 -7 -13 -27 -13 -30 0 -39 9 -24 24 11 10 46 3
51 -11z"/>
<path d="M2354 3148 c-11 -28 -6 -108 7 -108 5 0 9 18 9 39 0 22 5 42 13 44
10 4 10 6 0 6 -19 1 -15 29 5 34 14 4 13 5 -4 6 -13 1 -24 -8 -30 -21z"/>
<path d="M3520 3147 c0 -20 -4 -23 -35 -19 -30 4 -35 1 -41 -24 -10 -39 7 -59
50 -59 l36 -1 0 63 c0 35 -2 63 -5 63 -3 0 -5 -10 -5 -23z m-5 -56 c0 -34 -30
-51 -51 -29 -25 24 -10 60 24 56 21 -2 27 -8 27 -27z"/>
<path d="M4890 3147 c0 -20 -4 -23 -35 -19 -30 4 -35 1 -41 -24 -10 -39 7 -59
50 -59 l36 -1 0 63 c0 35 -2 63 -5 63 -3 0 -5 -10 -5 -23z m-5 -56 c0 -34 -30
-51 -51 -29 -25 24 -10 60 24 56 21 -2 27 -8 27 -27z"/>
<path d="M4985 3160 c-3 -6 1 -7 9 -4 18 7 21 14 7 14 -6 0 -13 -4 -16 -10z"/>
<path d="M5072 3153 c-11 -22 -3 -113 9 -113 5 0 9 18 9 40 0 24 5 40 12 40 6
0 3 6 -8 14 -18 14 -18 15 6 25 24 9 24 10 3 10 -12 1 -26 -7 -31 -16z"/>
<path d="M5310 3105 c0 -37 4 -65 10 -65 6 0 10 28 10 65 0 37 -4 65 -10 65
-6 0 -10 -28 -10 -65z"/>
<path d="M5370 3105 c0 -37 4 -65 10 -65 6 0 10 28 10 65 0 37 -4 65 -10 65
-6 0 -10 -28 -10 -65z"/>
<path d="M3300 3135 c-8 -10 -9 -15 -2 -15 6 0 12 -17 14 -37 2 -29 8 -39 23
-41 18 -2 18 -2 3 8 -23 14 -24 67 -3 72 13 2 12 5 -4 15 -15 10 -22 9 -31 -2z"/>
<path d="M5679 3138 c-5 -59 11 -98 40 -98 14 1 14 2 -1 11 -20 11 -25 69 -7
69 6 0 4 7 -5 15 -18 18 -26 19 -27 3z"/>
<path d="M2022 3083 c1 -37 2 -40 5 -16 3 19 14 39 26 48 21 15 21 15 -6 15
-26 0 -27 -2 -25 -47z"/>
<path d="M2100 3116 c-19 -24 -8 -60 23 -70 20 -7 30 -6 40 4 10 10 9 12 -5 7
-21 -7 -48 1 -48 14 0 5 16 9 35 9 35 0 40 5 29 34 -8 20 -57 21 -74 2z m64
-11 c4 -11 -2 -15 -24 -15 -20 0 -30 5 -30 15 0 9 9 15 24 15 13 0 26 -7 30
-15z"/>
<path d="M2221 3083 c1 -27 3 -39 6 -28 2 11 6 30 9 43 3 17 10 22 27 20 18
-2 23 -11 25 -40 4 -45 22 -51 22 -9 0 50 -9 61 -51 61 l-39 0 1 -47z"/>
<path d="M2418 3105 c-10 -22 -9 -29 9 -47 28 -27 70 -18 79 17 8 33 -11 55
-47 55 -22 0 -32 -7 -41 -25z m70 -16 c4 -30 -22 -46 -44 -28 -15 12 -19 41
-7 53 16 16 48 1 51 -25z"/>
<path d="M2540 3085 c0 -25 5 -45 10 -45 6 0 10 16 10 35 0 22 6 38 18 44 14
9 13 10 -10 11 -26 0 -28 -3 -28 -45z"/>
<path d="M2632 3118 c-29 -29 -7 -78 34 -78 13 0 26 5 29 10 4 7 -2 9 -17 5
-31 -8 -52 16 -43 46 6 16 13 20 36 17 16 -3 29 -1 29 4 0 12 -54 10 -68 -4z"/>
<path d="M2734 3103 c-4 -14 -2 -33 3 -42 13 -20 52 -26 67 -11 8 9 5 10 -15
5 -17 -4 -30 -1 -38 9 -12 14 -8 16 28 16 27 0 41 4 41 13 0 21 -22 37 -52 37
-22 0 -29 -6 -34 -27z m66 2 c0 -10 -10 -15 -30 -15 -22 0 -28 4 -24 15 4 8
17 15 30 15 15 0 24 -6 24 -15z"/>
<path d="M2850 3085 c0 -54 18 -60 22 -7 2 30 7 38 26 40 20 3 22 -1 22 -37 0
-51 18 -54 22 -3 2 30 7 38 26 40 20 3 22 -1 22 -37 0 -23 5 -41 11 -41 6 0 9
17 7 43 l-3 42 -77 3 -78 2 0 -45z"/>
<path d="M3051 3108 c-17 -43 42 -90 73 -58 8 9 5 10 -15 5 -17 -4 -30 -1 -38
9 -12 14 -8 16 28 16 44 0 46 2 31 31 -16 28 -68 26 -79 -3z m67 -5 c2 -9 -7
-13 -27 -13 -30 0 -39 9 -24 24 11 10 46 3 51 -11z"/>
<path d="M3170 3086 c0 -55 17 -62 22 -8 2 29 7 38 25 40 17 2 24 -3 27 -20
13 -58 14 -60 13 -18 l-2 45 -42 3 -43 3 0 -45z"/>
<path d="M3574 3103 c-4 -14 -2 -33 3 -42 13 -20 52 -26 67 -11 8 9 5 10 -15
5 -17 -4 -30 -1 -38 9 -12 14 -8 16 28 16 27 0 41 4 41 13 0 21 -22 37 -52 37
-22 0 -29 -6 -34 -27z m66 2 c0 -10 -10 -15 -30 -15 -22 0 -28 4 -24 15 4 8
17 15 30 15 15 0 24 -6 24 -15z"/>
<path d="M3690 3111 c0 -12 11 -23 31 -30 37 -13 29 -36 -10 -26 -19 5 -23 4
-15 -5 17 -17 58 -8 62 13 3 12 -6 21 -27 28 -40 14 -39 27 2 32 31 4 31 4 -5
5 -31 2 -38 -1 -38 -17z"/>
<path d="M3857 3123 c-13 -12 -7 -61 9 -73 38 -32 95 27 64 66 -13 14 -61 19
-73 7z m62 -17 c14 -16 5 -42 -16 -50 -29 -11 -58 35 -36 57 11 12 40 8 52 -7z"/>
<path d="M3984 3090 l1 -45 38 0 37 -1 -2 46 c-1 35 -2 38 -5 13 -8 -64 -59
-68 -66 -5 -4 30 -4 29 -3 -8z"/>
<path d="M4101 3123 c-1 -17 31 -83 40 -83 8 0 42 81 36 87 -2 2 -10 -10 -17
-27 -16 -38 -23 -38 -43 3 -8 17 -16 27 -16 20z"/>
<path d="M4221 3080 l2 -45 6 39 c4 26 13 42 26 47 17 6 15 7 -7 6 -26 -1 -28
-4 -27 -47z"/>
<path d="M4314 3121 c40 -8 46 -31 8 -31 -33 0 -48 -22 -28 -39 7 -6 25 -10
40 -9 24 2 26 6 26 45 l0 43 -37 -1 c-36 -1 -36 -2 -9 -8z m34 -53 c-3 -7 -13
-13 -23 -13 -10 0 -20 6 -22 13 -3 7 5 12 22 12 17 0 25 -5 23 -12z"/>
<path d="M4412 3118 c-29 -29 -5 -68 41 -68 19 0 27 -4 24 -12 -2 -7 -18 -13
-35 -13 -18 0 -32 -3 -32 -7 0 -5 16 -8 35 -8 41 0 55 20 55 79 0 41 0 41 -38
41 -21 0 -43 -5 -50 -12z m63 -28 c0 -30 -35 -40 -55 -15 -10 12 -10 18 0 30
20 25 55 15 55 -15z"/>
<path d="M4538 3106 c-9 -22 -8 -29 7 -46 20 -22 60 -27 71 -8 5 8 2 9 -11 4
-21 -8 -55 1 -55 15 0 5 16 9 36 9 31 0 35 3 32 23 -2 17 -11 23 -35 25 -27 3
-35 -1 -45 -22z m70 -3 c2 -9 -7 -13 -27 -13 -30 0 -39 9 -24 24 11 10 46 3
51 -11z"/>
<path d="M4655 3120 c-9 -15 14 -40 37 -40 11 0 18 -5 15 -12 -2 -7 -16 -12
-31 -11 -14 1 -24 -2 -21 -8 10 -14 51 -11 65 6 15 18 6 31 -24 37 -31 5 -30
26 1 31 27 4 27 4 -4 6 -17 0 -35 -4 -38 -9z"/>
<path d="M4950 3116 c-19 -24 -8 -60 23 -70 20 -7 30 -6 40 4 10 10 9 12 -5 7
-21 -7 -48 1 -48 14 0 5 16 9 35 9 35 0 40 5 29 34 -8 20 -57 21 -74 2z m64
-11 c4 -11 -2 -15 -24 -15 -20 0 -30 5 -30 15 0 9 9 15 24 15 13 0 26 -7 30
-15z"/>
<path d="M5164 3122 c42 -10 44 -30 4 -34 -25 -2 -33 -8 -33 -23 0 -16 7 -20
38 -21 l38 -1 -3 41 c-3 39 -5 41 -38 43 -33 1 -33 1 -6 -5z m26 -57 c-7 -8
-19 -15 -26 -15 -8 0 -14 7 -14 15 0 10 10 15 26 15 22 0 25 -2 14 -15z"/>
<path d="M5263 3085 c0 -27 2 -38 4 -22 2 15 2 37 0 50 -2 12 -4 0 -4 -28z"/>
<path d="M5458 3123 c42 -6 44 -33 1 -33 -26 0 -30 -3 -27 -22 2 -19 10 -23
41 -25 34 -1 37 1 37 27 0 49 -9 60 -49 58 l-36 -1 33 -4z m30 -55 c-3 -7 -13
-13 -23 -13 -10 0 -20 6 -22 13 -3 7 5 12 22 12 17 0 25 -5 23 -12z"/>
<path d="M5551 3083 c1 -27 3 -39 6 -28 2 11 6 30 9 43 3 17 10 22 27 20 18
-2 23 -11 25 -40 4 -45 22 -51 22 -9 0 50 -9 61 -51 61 l-39 0 1 -47z"/>
<path d="M5757 3116 c-7 -17 11 -36 35 -36 10 0 18 -7 18 -16 0 -13 -7 -15
-30 -10 -19 3 -29 2 -25 -4 7 -11 35 -13 59 -4 26 10 18 34 -14 45 -37 14 -38
26 -2 32 26 4 26 4 -4 6 -19 0 -34 -5 -37 -13z"/>
<path d="M5860 3049 c0 -5 5 -7 10 -4 6 3 10 8 10 11 0 2 -4 4 -10 4 -5 0 -10
-5 -10 -11z"/>
<path d="M13524 2827 c-2 -7 -3 -62 -2 -123 l3 -109 38 -3 37 -3 0 125 0 126
-35 0 c-20 0 -38 -6 -41 -13z"/>
<path d="M4295 2590 c-3 -5 -2 -10 4 -10 5 0 13 5 16 10 3 6 2 10 -4 10 -5 0
-13 -4 -16 -10z"/>
<path d="M2530 2505 c0 -37 4 -65 10 -65 6 0 10 28 10 65 0 37 -4 65 -10 65
-6 0 -10 -28 -10 -65z"/>
<path d="M3465 2558 c-41 -23 -47 -66 -15 -98 39 -39 110 -11 110 44 0 15 -11
33 -26 45 -30 24 -41 25 -69 9z m68 -29 c18 -25 11 -56 -15 -70 -45 -24 -91
24 -63 67 19 30 59 32 78 3z"/>
<path d="M3622 2558 c-46 -23 -37 -101 13 -114 15 -4 36 -1 48 5 21 11 20 11
-6 6 -55 -11 -89 30 -61 73 14 21 21 23 52 19 34 -6 35 -5 18 8 -23 17 -33 18
-64 3z"/>
<path d="M5363 2505 c0 -38 2 -53 4 -32 2 20 2 52 0 70 -2 17 -4 1 -4 -38z"/>
<path d="M5550 2550 c0 -16 -7 -20 -35 -20 -28 0 -38 -5 -44 -22 -14 -36 9
-63 53 -63 l36 -1 0 63 c0 35 -2 63 -5 63 -3 0 -5 -9 -5 -20z m-11 -44 c23
-28 -17 -68 -45 -45 -15 12 -19 41 -7 52 11 12 40 8 52 -7z"/>
<path d="M5780 2505 c0 -37 4 -65 10 -65 6 0 10 28 10 65 0 37 -4 65 -10 65
-6 0 -10 -28 -10 -65z"/>
<path d="M6135 2560 c-3 -6 1 -7 9 -4 18 7 21 14 7 14 -6 0 -13 -4 -16 -10z"/>
<path d="M6370 2505 c0 -37 4 -65 10 -65 6 0 10 28 10 65 0 37 -4 65 -10 65
-6 0 -10 -28 -10 -65z"/>
<path d="M7613 2505 c0 -38 2 -53 4 -32 2 20 2 52 0 70 -2 17 -4 1 -4 -38z"/>
<path d="M2020 2500 l0 -60 43 2 c36 1 38 2 10 5 -33 4 -33 5 -33 59 0 30 -4
54 -10 54 -6 0 -10 -27 -10 -60z"/>
<path d="M3180 2500 l0 -60 34 0 c19 0 41 3 50 6 18 7 22 54 5 54 -8 0 -8 5 1
15 22 27 4 45 -45 45 l-45 0 0 -60z m78 33 c-2 -12 -14 -19 -36 -21 -27 -3
-32 0 -32 17 0 17 6 21 36 21 28 0 35 -3 32 -17z m9 -49 c7 -19 -13 -34 -44
-34 -25 0 -37 15 -29 35 8 21 65 19 73 -1z"/>
<path d="M3320 2500 l0 -60 48 2 c43 1 44 2 10 5 l-38 4 0 55 c0 30 -4 54 -10
54 -6 0 -10 -27 -10 -60z"/>
<path d="M3804 2504 c-14 -31 -23 -59 -20 -62 3 -3 8 3 12 12 4 11 18 16 44
16 26 0 40 -5 44 -16 4 -9 9 -15 11 -12 8 8 -44 118 -55 118 -6 0 -22 -25 -36
-56z m50 20 c11 -29 6 -44 -14 -44 -11 0 -20 6 -20 14 0 21 11 46 20 46 4 0
11 -7 14 -16z"/>
<path d="M3941 2498 c1 -35 4 -53 6 -40 6 29 43 30 61 1 7 -12 16 -18 19 -15
3 3 0 13 -7 22 -11 12 -11 17 -1 23 7 5 11 21 9 37 -3 26 -7 29 -45 32 l-43 3
1 -63z m75 37 c9 -21 -14 -45 -42 -45 -20 0 -24 5 -24 30 0 27 3 30 30 30 18
0 33 -6 36 -15z"/>
<path d="M4070 2500 c0 -68 17 -82 22 -17 l3 42 20 -32 c10 -18 22 -33 25 -33
3 0 15 15 25 33 l20 32 3 -42 c5 -65 22 -51 22 17 0 33 -4 60 -10 60 -5 0 -20
-18 -32 -40 -13 -22 -25 -40 -28 -40 -3 0 -15 18 -28 40 -12 22 -27 40 -32 40
-6 0 -10 -27 -10 -60z"/>
<path d="M4260 2500 l0 -60 43 1 42 2 -35 6 c-26 4 -36 12 -38 28 -3 18 3 22
30 26 l33 4 -32 1 c-25 2 -33 7 -33 21 0 15 8 21 38 24 l37 4 -42 1 -43 2 0
-60z"/>
<path d="M4389 2543 c-13 -16 -12 -17 4 -4 9 7 17 15 17 17 0 8 -8 3 -21 -13z"/>
<path d="M2719 2538 c-5 -59 11 -98 40 -98 14 1 14 2 -1 11 -20 11 -25 69 -7
69 6 0 4 7 -5 15 -18 18 -26 19 -27 3z"/>
<path d="M5210 2535 c-8 -10 -9 -15 -2 -15 6 0 12 -17 14 -37 2 -29 8 -39 23
-41 18 -2 18 -2 3 8 -23 14 -24 67 -3 72 13 2 12 5 -4 15 -15 10 -22 9 -31 -2z"/>
<path d="M4410 2503 c0 -26 3 -34 9 -24 5 8 16 11 24 8 10 -4 18 1 22 13 9 27
-2 40 -31 40 -21 0 -24 -4 -24 -37z m50 12 c0 -8 -9 -15 -20 -15 -11 0 -20 7
-20 15 0 8 9 15 20 15 11 0 20 -7 20 -15z"/>
<path d="M2158 2523 c42 -6 44 -33 1 -33 -26 0 -30 -3 -27 -22 2 -19 10 -23
41 -25 34 -1 37 1 37 27 0 49 -9 60 -49 58 l-36 -1 33 -4z m30 -55 c-3 -7 -13
-13 -23 -13 -10 0 -20 6 -22 13 -3 7 5 12 22 12 17 0 25 -5 23 -12z"/>
<path d="M2307 2523 c-15 -14 -5 -32 24 -42 37 -13 29 -36 -10 -26 -19 5 -23
4 -15 -5 18 -19 59 -8 62 16 2 17 -4 23 -29 28 -36 7 -30 21 11 29 22 4 21 4
-6 6 -17 0 -34 -2 -37 -6z"/>
<path d="M2412 2518 c-27 -27 -1 -78 38 -78 29 0 54 43 40 69 -12 24 -58 29
-78 9z m66 -24 c4 -25 -19 -47 -41 -38 -22 8 -30 34 -16 51 17 20 53 12 57
-13z"/>
<path d="M2590 2496 c0 -41 15 -55 58 -54 31 1 32 2 32 45 0 23 -4 43 -10 43
-5 0 -10 -15 -10 -34 0 -22 -6 -36 -16 -40 -24 -9 -34 2 -34 40 0 19 -4 34
-10 34 -5 0 -10 -15 -10 -34z"/>
<path d="M2800 2485 c0 -25 5 -45 10 -45 6 0 10 20 10 45 0 25 -4 45 -10 45
-5 0 -10 -20 -10 -45z"/>
<path d="M2867 2523 c-13 -12 -7 -61 9 -73 38 -32 95 27 64 66 -13 14 -61 19
-73 7z m62 -17 c23 -28 -17 -68 -45 -45 -15 12 -19 41 -7 52 11 12 40 8 52 -7z"/>
<path d="M2991 2481 l2 -46 6 40 c5 34 10 40 31 40 21 0 26 -6 31 -40 l7 -40
-2 45 c-1 45 -1 45 -38 46 l-38 1 1 -46z"/>
<path d="M4492 2505 c0 -16 2 -22 5 -12 2 9 2 23 0 30 -3 6 -5 -1 -5 -18z"/>
<path d="M4642 2493 c-2 -37 1 -43 21 -47 51 -11 57 -6 55 43 -1 36 -2 39 -5
14 -2 -17 -11 -37 -19 -43 -20 -17 -42 3 -47 43 -3 27 -4 25 -5 -10z"/>
<path d="M4770 2486 c0 -55 17 -62 22 -8 2 29 7 38 25 40 17 2 24 -3 27 -20
13 -58 14 -60 13 -18 l-2 45 -42 3 -43 3 0 -45z"/>
<path d="M4962 2518 c-27 -27 -1 -78 38 -78 29 0 54 43 40 69 -12 24 -58 29
-78 9z m66 -24 c2 -11 -3 -26 -11 -33 -29 -24 -70 17 -46 46 17 20 53 12 57
-13z"/>
<path d="M5080 2496 c0 -41 16 -56 58 -53 31 2 32 3 31 47 -1 45 -1 45 -9 11
-15 -61 -53 -66 -58 -8 -4 46 -22 49 -22 3z"/>
<path d="M5303 2485 c0 -27 2 -38 4 -22 2 15 2 37 0 50 -2 12 -4 0 -4 -28z"/>
<path d="M5604 2503 c-4 -14 -2 -33 3 -42 13 -20 52 -26 67 -11 8 9 5 10 -15
5 -17 -4 -30 -1 -38 9 -12 14 -8 16 28 16 27 0 41 4 41 13 0 21 -22 37 -52 37
-22 0 -29 -6 -34 -27z m66 2 c0 -10 -10 -15 -30 -15 -22 0 -28 4 -24 15 4 8
17 15 30 15 15 0 24 -6 24 -15z"/>
<path d="M5864 2521 c40 -8 46 -31 8 -31 -33 0 -48 -22 -28 -39 7 -6 25 -10
40 -9 24 2 26 6 26 45 l0 43 -37 -1 c-36 -1 -36 -2 -9 -8z m34 -53 c-3 -7 -13
-13 -23 -13 -10 0 -20 6 -22 13 -3 7 5 12 22 12 17 0 25 -5 23 -12z"/>
<path d="M6010 2485 c0 -25 5 -45 10 -45 6 0 10 16 10 35 0 22 6 38 18 44 14
9 13 10 -10 11 -26 0 -28 -3 -28 -45z"/>
<path d="M6094 2503 c-4 -14 -2 -33 3 -42 13 -20 52 -26 67 -11 8 9 5 10 -15
5 -17 -4 -30 -1 -38 9 -12 14 -8 16 28 16 27 0 41 4 41 13 0 21 -22 37 -52 37
-22 0 -29 -6 -34 -27z m66 2 c0 -10 -10 -15 -30 -15 -22 0 -28 4 -24 15 4 8
17 15 30 15 15 0 24 -6 24 -15z"/>
<path d="M6207 2516 c-7 -17 11 -36 35 -36 10 0 18 -7 18 -16 0 -13 -7 -15
-30 -10 -19 3 -29 2 -25 -4 7 -11 35 -13 59 -4 26 10 18 34 -14 45 -37 14 -38
26 -2 32 26 4 26 4 -4 6 -19 0 -34 -5 -37 -13z"/>
<path d="M6310 2485 c0 -25 5 -45 10 -45 6 0 10 20 10 45 0 25 -4 45 -10 45
-5 0 -10 -20 -10 -45z"/>
<path d="M6430 2485 c0 -25 5 -45 10 -45 6 0 10 20 10 45 0 25 -4 45 -10 45
-5 0 -10 -20 -10 -45z"/>
<path d="M6488 2506 c-9 -22 -8 -29 7 -46 20 -22 60 -27 71 -8 5 8 2 9 -11 4
-21 -8 -55 1 -55 15 0 5 16 9 36 9 31 0 35 3 32 23 -2 17 -11 23 -35 25 -27 3
-35 -1 -45 -22z m70 -3 c2 -9 -7 -13 -27 -13 -30 0 -39 9 -24 24 11 10 46 3
51 -11z"/>
<path d="M6610 2486 c0 -55 17 -62 22 -8 2 29 7 38 25 40 17 2 24 -3 27 -20
13 -58 14 -60 13 -18 l-2 45 -42 3 -43 3 0 -45z"/>
<path d="M6738 2505 c-19 -43 32 -82 72 -55 12 8 8 10 -14 8 -32 -3 -53 19
-42 47 5 13 13 16 37 11 18 -3 28 -2 24 4 -3 6 -20 10 -36 10 -22 0 -32 -7
-41 -25z"/>
<path d="M6851 2508 c-17 -43 42 -90 73 -58 8 9 5 10 -15 5 -17 -4 -30 -1 -38
9 -12 14 -8 16 28 16 44 0 46 2 31 31 -16 28 -68 26 -79 -3z m67 -5 c2 -9 -7
-13 -27 -13 -30 0 -39 9 -24 24 11 10 46 3 51 -11z"/>
<path d="M7081 2466 c1 -34 4 -51 6 -39 4 18 9 21 32 17 34 -7 54 14 49 53 -3
26 -7 28 -45 29 l-43 1 1 -61z m74 25 c0 -34 -30 -51 -51 -29 -25 24 -10 60
24 56 21 -2 27 -8 27 -27z"/>
<path d="M7208 2505 c-10 -22 -9 -29 9 -47 28 -27 70 -18 79 17 8 33 -11 55
-47 55 -22 0 -32 -7 -41 -25z m70 -16 c4 -30 -22 -46 -44 -28 -15 12 -19 41
-7 53 16 16 48 1 51 -25z"/>
<path d="M7330 2496 c0 -41 16 -56 58 -53 31 2 32 3 31 47 -1 45 -1 45 -9 11
-15 -61 -53 -66 -58 -8 -4 46 -22 49 -22 3z"/>
<path d="M7471 2480 l2 -45 6 39 c4 26 13 42 26 47 17 6 15 7 -7 6 -26 -1 -28
-4 -27 -47z"/>
<path d="M7661 2508 c-17 -43 42 -90 73 -58 8 9 5 10 -15 5 -17 -4 -30 -1 -38
9 -12 14 -8 16 28 16 44 0 46 2 31 31 -16 28 -68 26 -79 -3z m67 -5 c2 -9 -7
-13 -27 -13 -30 0 -39 9 -24 24 11 10 46 3 51 -11z"/>
<path d="M7777 2516 c-7 -17 11 -36 35 -36 10 0 18 -7 18 -16 0 -13 -7 -15
-30 -10 -19 3 -29 2 -25 -4 7 -11 35 -13 59 -4 26 10 18 34 -14 45 -37 14 -38
26 -2 32 26 4 26 4 -4 6 -19 0 -34 -5 -37 -13z"/>
<path d="M4394 2463 c12 -14 29 -22 45 -22 l26 2 -25 4 c-14 3 -34 12 -45 21
-20 17 -20 17 -1 -5z"/>
<path d="M4530 2438 c0 -19 2 -20 10 -8 13 19 13 30 0 30 -5 0 -10 -10 -10
-22z"/>
<path d="M6967 2440 c3 -11 7 -20 9 -20 2 0 4 9 4 20 0 11 -4 20 -9 20 -5 0
-7 -9 -4 -20z"/>
<path d="M3500 2270 c0 -16 -7 -20 -30 -20 -52 0 -67 -75 -17 -84 61 -12 67
-6 67 61 0 35 -4 63 -10 63 -5 0 -10 -9 -10 -20z m-2 -61 c4 -30 -22 -46 -44
-28 -15 12 -19 41 -7 53 16 16 48 1 51 -25z"/>
<path d="M3804 2268 c-11 -28 -6 -108 7 -108 5 0 9 18 9 39 0 22 5 42 13 44
10 4 10 6 0 6 -19 1 -15 29 5 34 14 4 13 5 -4 6 -13 1 -24 -8 -30 -21z"/>
<path d="M3562 2260 c0 -14 2 -19 5 -12 2 6 2 18 0 25 -3 6 -5 1 -5 -13z"/>
<path d="M2369 2258 c-5 -59 11 -98 40 -98 14 1 14 2 -1 11 -20 11 -25 69 -7
69 6 0 4 7 -5 15 -18 18 -26 19 -27 3z"/>
<path d="M4160 2255 c-8 -10 -9 -15 -2 -15 6 0 12 -17 14 -37 2 -29 8 -39 23
-41 18 -2 18 -2 3 8 -23 14 -24 67 -3 72 13 2 12 5 -4 15 -15 10 -22 9 -31 -2z"/>
<path d="M4570 2255 c-8 -10 -9 -15 -2 -15 6 0 12 -17 14 -37 2 -29 8 -39 23
-41 18 -2 18 -2 3 8 -23 14 -24 67 -3 72 13 2 12 5 -4 15 -15 10 -22 9 -31 -2z"/>
<path d="M2022 2238 c-29 -29 -5 -68 41 -68 19 0 27 -4 24 -12 -2 -7 -18 -13
-35 -13 -18 0 -32 -3 -32 -7 0 -5 16 -8 35 -8 41 0 55 20 55 79 0 41 0 41 -38
41 -21 0 -43 -5 -50 -12z m63 -28 c0 -30 -35 -40 -55 -15 -10 12 -10 18 0 30
20 25 55 15 55 -15z"/>
<path d="M2148 2226 c-9 -22 -8 -29 7 -46 20 -22 60 -27 71 -8 5 8 2 9 -11 4
-21 -8 -55 1 -55 15 0 5 16 9 36 9 31 0 35 3 32 23 -2 17 -11 23 -35 25 -27 3
-35 -1 -45 -22z m70 -3 c2 -9 -7 -13 -27 -13 -30 0 -39 9 -24 24 11 10 46 3
51 -11z"/>
<path d="M2265 2240 c-9 -15 14 -40 37 -40 11 0 18 -5 15 -12 -2 -7 -16 -12
-31 -11 -14 1 -24 -2 -21 -8 10 -14 51 -11 65 6 15 18 6 31 -24 37 -31 5 -30
26 1 31 27 4 27 4 -4 6 -17 0 -35 -4 -38 -9z"/>
<path d="M2450 2205 c0 -25 5 -45 10 -45 6 0 10 20 10 45 0 25 -4 45 -10 45
-5 0 -10 -20 -10 -45z"/>
<path d="M2517 2243 c-13 -12 -7 -61 9 -73 38 -32 95 27 64 66 -13 14 -61 19
-73 7z m62 -17 c23 -28 -17 -68 -45 -45 -15 12 -19 41 -7 52 11 12 40 8 52 -7z"/>
<path d="M2641 2201 l2 -46 6 40 c5 34 10 40 31 40 21 0 26 -6 31 -40 l7 -40
-2 45 c-1 45 -1 45 -38 46 l-38 1 1 -46z"/>
<path d="M2771 2203 c1 -27 3 -39 6 -28 2 11 6 30 9 43 3 17 10 22 27 20 18
-2 23 -11 25 -40 4 -45 22 -51 22 -9 0 50 -9 61 -51 61 l-39 0 1 -47z"/>
<path d="M2924 2242 c42 -10 44 -30 4 -34 -25 -2 -33 -8 -33 -23 0 -16 7 -20
38 -21 l38 -1 -3 41 c-3 39 -5 41 -38 43 -33 1 -33 1 -6 -5z m26 -57 c-7 -8
-19 -15 -26 -15 -8 0 -14 7 -14 15 0 10 10 15 26 15 22 0 25 -2 14 -15z"/>
<path d="M3023 2205 c0 -27 2 -38 4 -22 2 15 2 37 0 50 -2 12 -4 0 -4 -28z"/>
<path d="M3081 2200 l2 -45 6 39 c4 26 13 42 26 47 17 6 15 7 -7 6 -26 -1 -28
-4 -27 -47z"/>
<path d="M3154 2223 c-4 -14 -2 -33 3 -42 13 -20 52 -26 67 -11 8 9 5 10 -15
5 -17 -4 -30 -1 -38 9 -12 14 -8 16 28 16 27 0 41 4 41 13 0 21 -22 37 -52 37
-22 0 -29 -6 -34 -27z m66 2 c0 -10 -10 -15 -30 -15 -22 0 -28 4 -24 15 4 8
17 15 30 15 15 0 24 -6 24 -15z"/>
<path d="M3270 2231 c0 -12 11 -23 31 -30 37 -13 29 -36 -10 -26 -19 5 -23 4
-15 -5 17 -17 58 -8 62 13 3 12 -6 21 -27 28 -40 14 -39 27 2 32 31 4 31 4 -5
5 -31 2 -38 -1 -38 -17z"/>
<path d="M3610 2205 c0 -25 5 -45 10 -45 6 0 10 20 10 45 0 25 -4 45 -10 45
-5 0 -10 -20 -10 -45z"/>
<path d="M3671 2203 c1 -27 3 -39 6 -28 2 11 6 30 9 43 3 17 10 22 27 20 18
-2 23 -11 25 -40 4 -45 22 -51 22 -9 0 50 -9 61 -51 61 l-39 0 1 -47z"/>
<path d="M3870 2205 c0 -25 5 -45 10 -45 6 0 10 16 10 35 0 22 6 38 18 44 14
9 13 10 -10 11 -26 0 -28 -3 -28 -45z"/>
<path d="M3974 2242 c42 -10 44 -30 4 -34 -25 -2 -33 -8 -33 -23 0 -16 7 -20
38 -21 l38 -1 -3 41 c-3 39 -5 41 -38 43 -33 1 -33 1 -6 -5z m26 -57 c-7 -8
-19 -15 -26 -15 -8 0 -14 7 -14 15 0 10 10 15 26 15 22 0 25 -2 14 -15z"/>
<path d="M4057 2236 c-7 -17 11 -36 35 -36 10 0 18 -7 18 -16 0 -13 -7 -15
-30 -10 -19 3 -29 2 -25 -4 7 -11 35 -13 59 -4 26 10 18 34 -14 45 -37 14 -38
26 -2 32 26 4 26 4 -4 6 -19 0 -34 -5 -37 -13z"/>
<path d="M4252 2203 c1 -37 2 -40 5 -16 3 19 14 39 26 48 21 15 21 15 -6 15
-26 0 -27 -2 -25 -47z"/>
<path d="M4330 2216 c0 -41 15 -55 58 -54 31 1 32 2 32 45 0 23 -4 43 -10 43
-5 0 -10 -15 -10 -34 0 -22 -6 -36 -16 -40 -24 -9 -34 2 -34 40 0 19 -4 34
-10 34 -5 0 -10 -15 -10 -34z"/>
<path d="M4458 2225 c-19 -43 32 -82 72 -55 12 8 8 10 -14 8 -32 -3 -53 19
-42 47 5 13 13 16 37 11 18 -3 28 -2 24 4 -3 6 -20 10 -36 10 -22 0 -32 -7
-41 -25z"/>
<path d="M4662 2213 c-2 -37 1 -43 21 -47 51 -11 57 -6 55 43 -1 36 -2 39 -5
14 -2 -17 -11 -37 -19 -43 -20 -17 -42 3 -47 43 -3 27 -4 25 -5 -10z"/>
<path d="M4792 2203 c1 -37 2 -40 5 -16 3 19 14 39 26 48 21 15 21 15 -6 15
-26 0 -27 -2 -25 -47z"/>
<path d="M4870 2236 c-19 -24 -8 -60 23 -70 20 -7 30 -6 40 4 10 10 9 12 -5 7
-21 -7 -48 1 -48 14 0 5 16 9 35 9 35 0 40 5 29 34 -8 20 -57 21 -74 2z m64
-11 c4 -11 -2 -15 -24 -15 -20 0 -30 5 -30 15 0 9 9 15 24 15 13 0 26 -7 30
-15z"/>
<path d="M4987 2243 c-15 -14 -5 -32 24 -42 37 -13 29 -36 -10 -26 -19 5 -23
4 -15 -5 18 -19 59 -8 62 16 2 17 -4 23 -29 28 -36 7 -30 21 11 29 22 4 21 4
-6 6 -17 0 -34 -2 -37 -6z"/>
<path d="M2070 1742 c-63 -31 -70 -61 -70 -282 0 -221 7 -251 70 -282 33 -17
121 -18 1405 -18 1284 0 1372 1 1405 18 63 31 70 61 70 282 0 221 -7 251 -70
282 -33 17 -121 18 -1405 18 -1284 0 -1372 -1 -1405 -18z m2430 -244 l0 -62
30 29 c20 20 30 24 30 14 0 -8 -16 -30 -35 -49 l-35 -34 -35 34 c-19 19 -35
41 -35 49 0 10 10 6 30 -14 l30 -29 0 62 c0 35 4 62 10 62 6 0 10 -27 10 -62z
m-2020 27 c0 -8 -9 -15 -20 -15 -11 0 -20 7 -20 15 0 8 9 15 20 15 11 0 20 -7
20 -15z m150 -4 c0 -15 8 -21 33 -23 31 -3 32 -5 35 -50 2 -38 0 -48 -12 -48
-12 0 -16 10 -16 36 0 28 -3 35 -17 32 -12 -2 -19 -14 -21 -36 -2 -20 -9 -32
-18 -32 -11 0 -14 16 -14 70 0 56 3 70 15 70 8 0 15 -9 15 -19z m-200 -6 c0
-10 -11 -15 -35 -15 -24 0 -35 -5 -35 -15 0 -11 11 -15 36 -15 45 0 42 -24 -4
-28 -24 -2 -32 -8 -32 -23 0 -10 -7 -19 -15 -19 -12 0 -15 14 -15 65 l0 65 50
0 c38 0 50 -4 50 -15z m560 1 c6 -8 10 -23 9 -33 -1 -10 1 -26 6 -36 12 -29
-12 -47 -66 -47 l-49 0 0 65 0 65 44 0 c26 0 48 -6 56 -14z m70 -41 c0 -54 0
-55 30 -55 17 0 30 -4 30 -10 0 -5 -20 -10 -45 -10 l-45 0 0 65 c0 51 3 65 15
65 12 0 15 -13 15 -55z m191 28 c14 -18 23 -24 26 -15 15 41 87 58 113 27 14
-16 12 -17 -40 -19 -30 -1 -35 -5 -38 -27 -4 -36 22 -57 50 -40 22 13 46 1 34
-17 -19 -31 -104 -18 -113 18 -3 11 -9 20 -13 20 -4 0 -10 -9 -13 -20 -11 -43
-93 -48 -122 -7 -53 76 58 151 116 80z m309 -35 c26 -55 28 -63 14 -67 -10 -1
-21 4 -26 13 -12 21 -47 21 -63 0 -6 -9 -18 -15 -27 -13 -12 3 -10 15 15 67
16 34 35 62 43 62 8 0 28 -28 44 -62z m131 52 c20 -11 25 -45 10 -69 -6 -9 -6
-22 0 -33 8 -14 6 -18 -10 -18 -10 0 -21 7 -25 15 -3 8 -12 15 -21 15 -8 0
-15 -7 -15 -15 0 -8 -7 -15 -15 -15 -12 0 -15 14 -15 65 l0 65 36 0 c19 0 44
-5 55 -10z m90 -30 l23 -40 21 37 c11 21 28 39 38 41 15 3 17 -5 17 -62 0 -51
-3 -66 -14 -66 -9 0 -16 13 -18 33 l-4 32 -13 -27 c-8 -16 -19 -28 -25 -28 -6
0 -19 12 -28 28 l-17 27 -1 -32 c0 -23 -5 -33 -15 -33 -12 0 -15 14 -15 65 0
78 17 86 51 25z m219 25 c0 -10 -11 -15 -35 -15 -19 0 -35 -4 -35 -10 0 -5 14
-10 30 -10 20 0 30 -5 30 -15 0 -10 -10 -15 -30 -15 -20 0 -30 -5 -30 -15 0
-10 11 -15 35 -15 19 0 35 -4 35 -10 0 -5 -22 -10 -50 -10 l-50 0 0 65 0 65
50 0 c38 0 50 -4 50 -15z m130 -5 c43 -43 13 -110 -49 -110 -21 0 -43 6 -49
13 -56 67 36 159 98 97z m-1650 -60 c0 -38 -4 -50 -15 -50 -11 0 -15 12 -15
50 0 38 4 50 15 50 11 0 15 -12 15 -50z m105 30 c0 -10 -8 -14 -27 -12 -31 3
-45 -13 -28 -33 8 -9 21 -13 36 -9 29 8 32 -11 4 -26 -50 -27 -104 44 -64 84
21 21 79 18 79 -4z m223 8 c7 -7 12 -20 12 -30 0 -14 -8 -18 -36 -18 -21 0
-33 -4 -29 -10 4 -6 16 -9 28 -8 28 4 35 -14 9 -23 -47 -18 -93 48 -61 87 14
17 60 19 77 2z m1772 -133 c0 -12 -17 -15 -90 -15 -73 0 -90 3 -90 15 0 12 17
15 90 15 73 0 90 -3 90 -15z"/>
<path d="M2920 1490 c0 -5 11 -10 25 -10 14 0 25 5 25 10 0 6 -11 10 -25 10
-14 0 -25 -4 -25 -10z"/>
<path d="M2920 1435 c0 -12 7 -15 25 -13 14 2 26 8 26 13 0 6 -12 11 -26 13
-18 2 -25 -1 -25 -13z"/>
<path d="M3162 1484 c-13 -23 -4 -52 20 -59 26 -9 50 13 46 44 -2 20 -9 27
-30 29 -17 2 -30 -3 -36 -14z"/>
<path d="M3506 1465 c-3 -9 0 -15 9 -15 16 0 20 16 6 24 -5 3 -11 -1 -15 -9z"/>
<path d="M3630 1480 c0 -16 5 -21 23 -18 12 2 22 10 22 18 0 8 -10 16 -22 18
-18 3 -23 -2 -23 -18z"/>
<path d="M4060 1506 c0 -2 13 -6 29 -8 17 -2 28 -1 25 4 -5 8 -54 12 -54 4z"/>
<path d="M4035 1480 c-3 -11 -2 -28 4 -37 8 -15 10 -11 11 20 0 41 -5 47 -15
17z"/>
<path d="M4117 1466 c-4 -10 -5 -21 -2 -24 9 -9 17 6 13 25 -3 17 -4 17 -11
-1z"/>
<path d="M4070 1431 c0 -11 4 -21 9 -21 18 0 21 18 6 30 -13 10 -15 9 -15 -9z"/>
<path d="M2758 1463 c6 -2 18 -2 25 0 6 3 1 5 -13 5 -14 0 -19 -2 -12 -5z"/>
</g>
</svg>
